G04*
G04 #@! TF.GenerationSoftware,Altium Limited,Altium Designer,18.0.12 (696)*
G04*
G04 Layer_Color=8388736*
%FSLAX44Y44*%
%MOMM*%
G71*
G01*
G75*
G04:AMPARAMS|DCode=25|XSize=1.6032mm|YSize=1.6032mm|CornerRadius=0.4516mm|HoleSize=0mm|Usage=FLASHONLY|Rotation=0.000|XOffset=0mm|YOffset=0mm|HoleType=Round|Shape=RoundedRectangle|*
%AMROUNDEDRECTD25*
21,1,1.6032,0.7000,0,0,0.0*
21,1,0.7000,1.6032,0,0,0.0*
1,1,0.9032,0.3500,-0.3500*
1,1,0.9032,-0.3500,-0.3500*
1,1,0.9032,-0.3500,0.3500*
1,1,0.9032,0.3500,0.3500*
%
%ADD25ROUNDEDRECTD25*%
%ADD26R,1.2032X1.1032*%
%ADD27R,1.0795X0.3556*%
%ADD28R,1.3208X1.3208*%
%ADD29R,1.2032X0.8532*%
%ADD30R,0.8532X1.2032*%
%ADD31R,2.2032X2.7032*%
%ADD32R,0.7032X2.5032*%
%ADD33R,1.1532X1.6532*%
%ADD34R,1.1032X1.2032*%
G04:AMPARAMS|DCode=35|XSize=2.1032mm|YSize=0.8032mm|CornerRadius=0.1766mm|HoleSize=0mm|Usage=FLASHONLY|Rotation=90.000|XOffset=0mm|YOffset=0mm|HoleType=Round|Shape=RoundedRectangle|*
%AMROUNDEDRECTD35*
21,1,2.1032,0.4500,0,0,90.0*
21,1,1.7500,0.8032,0,0,90.0*
1,1,0.3532,0.2250,0.8750*
1,1,0.3532,0.2250,-0.8750*
1,1,0.3532,-0.2250,-0.8750*
1,1,0.3532,-0.2250,0.8750*
%
%ADD35ROUNDEDRECTD35*%
%ADD36R,1.0032X0.4532*%
%ADD37R,1.8032X4.2032*%
%ADD38R,1.2032X1.0032*%
%ADD39R,1.0032X1.2032*%
%ADD40R,4.0032X3.2032*%
%ADD41R,0.4832X0.8932*%
%ADD42R,2.7032X2.7032*%
%ADD43R,0.8932X0.4832*%
G04:AMPARAMS|DCode=44|XSize=1.7232mm|YSize=0.4832mm|CornerRadius=0.1366mm|HoleSize=0mm|Usage=FLASHONLY|Rotation=90.000|XOffset=0mm|YOffset=0mm|HoleType=Round|Shape=RoundedRectangle|*
%AMROUNDEDRECTD44*
21,1,1.7232,0.2100,0,0,90.0*
21,1,1.4500,0.4832,0,0,90.0*
1,1,0.2732,0.1050,0.7250*
1,1,0.2732,0.1050,-0.7250*
1,1,0.2732,-0.1050,-0.7250*
1,1,0.2732,-0.1050,0.7250*
%
%ADD44ROUNDEDRECTD44*%
G04:AMPARAMS|DCode=45|XSize=1.7232mm|YSize=0.4832mm|CornerRadius=0.1366mm|HoleSize=0mm|Usage=FLASHONLY|Rotation=0.000|XOffset=0mm|YOffset=0mm|HoleType=Round|Shape=RoundedRectangle|*
%AMROUNDEDRECTD45*
21,1,1.7232,0.2100,0,0,0.0*
21,1,1.4500,0.4832,0,0,0.0*
1,1,0.2732,0.7250,-0.1050*
1,1,0.2732,-0.7250,-0.1050*
1,1,0.2732,-0.7250,0.1050*
1,1,0.2732,0.7250,0.1050*
%
%ADD45ROUNDEDRECTD45*%
%ADD46R,1.5240X1.6002*%
%ADD47R,1.0532X2.3532*%
G04:AMPARAMS|DCode=48|XSize=1.7732mm|YSize=0.6132mm|CornerRadius=0.1529mm|HoleSize=0mm|Usage=FLASHONLY|Rotation=180.000|XOffset=0mm|YOffset=0mm|HoleType=Round|Shape=RoundedRectangle|*
%AMROUNDEDRECTD48*
21,1,1.7732,0.3075,0,0,180.0*
21,1,1.4675,0.6132,0,0,180.0*
1,1,0.3057,-0.7338,0.1538*
1,1,0.3057,0.7338,0.1538*
1,1,0.3057,0.7338,-0.1538*
1,1,0.3057,-0.7338,-0.1538*
%
%ADD48ROUNDEDRECTD48*%
%ADD49R,4.2032X4.2032*%
%ADD50R,0.6096X2.3622*%
%ADD51R,1.3208X1.3208*%
%ADD52R,0.8032X1.4532*%
%ADD53R,0.8032X1.3032*%
%ADD54R,0.3556X1.0795*%
%ADD55R,0.2794X1.5494*%
%ADD56R,1.5494X0.2794*%
%ADD57R,1.7780X0.3556*%
%ADD58R,2.4032X2.0032*%
%ADD59R,0.3048X0.8382*%
%ADD60R,1.6002X0.9906*%
%ADD61R,2.2032X2.0032*%
%ADD62R,0.5032X1.5032*%
%ADD63R,1.3032X0.8032*%
%ADD64R,1.7532X0.8032*%
%ADD65R,1.6532X1.1532*%
%ADD66R,0.8032X2.4032*%
%ADD67R,1.6532X1.3032*%
%ADD68R,1.7272X1.4732*%
%ADD69R,2.6032X1.9532*%
%ADD70R,0.6532X1.6532*%
%ADD71R,1.7032X0.6532*%
%ADD72R,1.0932X2.6132*%
%ADD73R,5.5532X8.7432*%
G04:AMPARAMS|DCode=74|XSize=3.0032mm|YSize=2.4032mm|CornerRadius=1.1026mm|HoleSize=0mm|Usage=FLASHONLY|Rotation=0.000|XOffset=0mm|YOffset=0mm|HoleType=Round|Shape=RoundedRectangle|*
%AMROUNDEDRECTD74*
21,1,3.0032,0.1980,0,0,0.0*
21,1,0.7980,2.4032,0,0,0.0*
1,1,2.2052,0.3990,-0.0990*
1,1,2.2052,-0.3990,-0.0990*
1,1,2.2052,-0.3990,0.0990*
1,1,2.2052,0.3990,0.0990*
%
%ADD74ROUNDEDRECTD74*%
%ADD75R,3.5032X2.2032*%
%ADD76R,1.2032X2.2032*%
%ADD77R,2.0032X2.2032*%
%ADD78C,2.6032*%
%ADD79C,1.6032*%
%ADD80C,3.4532*%
%ADD81C,0.9000*%
%ADD82C,1.7032*%
%ADD83C,5.7032*%
%ADD84O,2.1336X4.0640*%
%ADD85C,2.0032*%
%ADD86R,2.0032X2.0032*%
%ADD87C,5.6032*%
%ADD88C,2.1532*%
%ADD89R,2.1532X2.1532*%
%ADD90C,1.7032*%
%ADD91R,1.7032X1.7032*%
%ADD92R,1.7032X1.7032*%
%ADD93R,1.8032X1.8032*%
%ADD94C,1.8032*%
%ADD95C,1.9032*%
%ADD96R,1.8032X1.8032*%
%ADD97C,0.9032*%
%ADD98C,0.8632*%
D25*
X1942568Y2798752D02*
D03*
X1963396D02*
D03*
X2055344D02*
D03*
X2076172D02*
D03*
D26*
X2503200Y2406478D02*
D03*
Y2390478D02*
D03*
X2588200Y2203000D02*
D03*
Y2187000D02*
D03*
X2776200Y2259478D02*
D03*
Y2243478D02*
D03*
X1031200Y2789000D02*
D03*
Y2773000D02*
D03*
X2944200Y2623000D02*
D03*
Y2639000D02*
D03*
X2561200Y188000D02*
D03*
Y172000D02*
D03*
X4083200Y933000D02*
D03*
Y917000D02*
D03*
X1839200Y2857000D02*
D03*
Y2841000D02*
D03*
X173200Y2787000D02*
D03*
Y2771000D02*
D03*
X1672200Y197000D02*
D03*
Y181000D02*
D03*
X173200Y271000D02*
D03*
Y287000D02*
D03*
X4083200Y263000D02*
D03*
Y279000D02*
D03*
X2185560Y1905020D02*
D03*
Y1921020D02*
D03*
Y1999760D02*
D03*
Y1983760D02*
D03*
Y2062630D02*
D03*
Y2078630D02*
D03*
X1313700Y1997750D02*
D03*
Y2013750D02*
D03*
X2185560Y2138700D02*
D03*
Y2154700D02*
D03*
X2106310Y2156380D02*
D03*
Y2172380D02*
D03*
X1073450Y2820250D02*
D03*
Y2804250D02*
D03*
X1103200Y2820000D02*
D03*
Y2804000D02*
D03*
X1341750Y2102750D02*
D03*
Y2086750D02*
D03*
X2092570Y2441722D02*
D03*
Y2425722D02*
D03*
X2115430D02*
D03*
Y2441722D02*
D03*
X2054710Y2350062D02*
D03*
Y2366062D02*
D03*
X2044560Y2325422D02*
D03*
Y2309422D02*
D03*
X2008990Y2350062D02*
D03*
Y2366062D02*
D03*
X2021710Y2325422D02*
D03*
Y2309422D02*
D03*
X1369690Y2086750D02*
D03*
Y2102750D02*
D03*
X1397630D02*
D03*
Y2086750D02*
D03*
X1425570D02*
D03*
Y2102750D02*
D03*
X2132745Y1383000D02*
D03*
Y1399000D02*
D03*
X1958200D02*
D03*
Y1383000D02*
D03*
X1980018D02*
D03*
Y1399000D02*
D03*
X2176382D02*
D03*
Y1383000D02*
D03*
X2199200D02*
D03*
Y1399000D02*
D03*
X1991200Y1159000D02*
D03*
Y1175000D02*
D03*
X2001836Y1399000D02*
D03*
Y1383000D02*
D03*
X2023654D02*
D03*
Y1399000D02*
D03*
X2045473D02*
D03*
Y1383000D02*
D03*
X2154563D02*
D03*
Y1399000D02*
D03*
X2067291D02*
D03*
Y1383000D02*
D03*
X2089109D02*
D03*
Y1399000D02*
D03*
X2110927D02*
D03*
Y1383000D02*
D03*
X964810Y2850600D02*
D03*
Y2866600D02*
D03*
X715700Y2869660D02*
D03*
Y2853660D02*
D03*
X452200Y2698460D02*
D03*
Y2714460D02*
D03*
X2252610Y1094120D02*
D03*
Y1078120D02*
D03*
X2070200Y1312000D02*
D03*
Y1328000D02*
D03*
X3969200Y744000D02*
D03*
Y760000D02*
D03*
X3945000Y744200D02*
D03*
Y760200D02*
D03*
X3729200Y760000D02*
D03*
Y744000D02*
D03*
X3705000Y760200D02*
D03*
Y744200D02*
D03*
X4012700Y233100D02*
D03*
Y217100D02*
D03*
X3489200Y760000D02*
D03*
Y744000D02*
D03*
X3465000Y760200D02*
D03*
Y744200D02*
D03*
X3249200Y744000D02*
D03*
Y760000D02*
D03*
X3225000Y744200D02*
D03*
Y760200D02*
D03*
X3532700Y217100D02*
D03*
Y233100D02*
D03*
X3009200Y744000D02*
D03*
Y760000D02*
D03*
X2985000Y744200D02*
D03*
Y760200D02*
D03*
X2769200Y760000D02*
D03*
Y744000D02*
D03*
X2745000Y760200D02*
D03*
Y744200D02*
D03*
X3052700Y233100D02*
D03*
Y217100D02*
D03*
X2529200Y760000D02*
D03*
Y744000D02*
D03*
X2505000Y760200D02*
D03*
Y744200D02*
D03*
X2289200Y744000D02*
D03*
Y760000D02*
D03*
X2265000Y744200D02*
D03*
Y760200D02*
D03*
X2572700Y217100D02*
D03*
Y233100D02*
D03*
X2049200Y744000D02*
D03*
Y760000D02*
D03*
X2025000Y744200D02*
D03*
Y760200D02*
D03*
X1809200Y760000D02*
D03*
Y744000D02*
D03*
X1785000Y760200D02*
D03*
Y744200D02*
D03*
X2092700Y233100D02*
D03*
Y217100D02*
D03*
X1569200Y760000D02*
D03*
Y744000D02*
D03*
X1545000Y760200D02*
D03*
Y744200D02*
D03*
X1329200Y744000D02*
D03*
Y760000D02*
D03*
X1305000Y744200D02*
D03*
Y760200D02*
D03*
X1603200Y265000D02*
D03*
Y249000D02*
D03*
X1089200Y744000D02*
D03*
Y760000D02*
D03*
X1065000Y744200D02*
D03*
Y760200D02*
D03*
X849200Y760000D02*
D03*
Y744000D02*
D03*
X825000Y760200D02*
D03*
Y744200D02*
D03*
X1132700Y233100D02*
D03*
Y217100D02*
D03*
X609200Y760000D02*
D03*
Y744000D02*
D03*
X585000Y760200D02*
D03*
Y744200D02*
D03*
X369200Y744000D02*
D03*
Y760000D02*
D03*
X345000Y744200D02*
D03*
Y760200D02*
D03*
X2474530Y2406478D02*
D03*
Y2390478D02*
D03*
X2561890Y2186858D02*
D03*
Y2202858D02*
D03*
X2944200Y2585000D02*
D03*
Y2601000D02*
D03*
X2750510Y2243478D02*
D03*
Y2259478D02*
D03*
X2941638Y2333075D02*
D03*
Y2317075D02*
D03*
X3106500Y2329595D02*
D03*
Y2345595D02*
D03*
X2609760Y2015638D02*
D03*
Y2031638D02*
D03*
X230000Y712700D02*
D03*
Y696700D02*
D03*
X470000Y712700D02*
D03*
Y696700D02*
D03*
X710000Y712700D02*
D03*
Y696700D02*
D03*
X950000Y712700D02*
D03*
Y696700D02*
D03*
X1190000Y712700D02*
D03*
Y696700D02*
D03*
X1430000Y712700D02*
D03*
Y696700D02*
D03*
X1670000Y712700D02*
D03*
Y696700D02*
D03*
X1910000Y712700D02*
D03*
Y696700D02*
D03*
X2150000Y712700D02*
D03*
Y696700D02*
D03*
X2390000Y712700D02*
D03*
Y696700D02*
D03*
X2630000Y712700D02*
D03*
Y696700D02*
D03*
X2870000Y712700D02*
D03*
Y696700D02*
D03*
X3110000Y712700D02*
D03*
Y696700D02*
D03*
X3350000Y712700D02*
D03*
Y696700D02*
D03*
X3590000Y712700D02*
D03*
Y696700D02*
D03*
X3830000Y712700D02*
D03*
Y696700D02*
D03*
X652700Y233100D02*
D03*
Y217100D02*
D03*
X445200Y300000D02*
D03*
Y316000D02*
D03*
X925200D02*
D03*
Y300000D02*
D03*
X1405200D02*
D03*
Y316000D02*
D03*
X1885200D02*
D03*
Y300000D02*
D03*
X2365200D02*
D03*
Y316000D02*
D03*
X2845200D02*
D03*
Y300000D02*
D03*
X3325200D02*
D03*
Y316000D02*
D03*
X3805200D02*
D03*
Y300000D02*
D03*
X415200D02*
D03*
Y316000D02*
D03*
X895200D02*
D03*
Y300000D02*
D03*
X1375200D02*
D03*
Y316000D02*
D03*
X1855200D02*
D03*
Y300000D02*
D03*
X2335200D02*
D03*
Y316000D02*
D03*
X2815200D02*
D03*
Y300000D02*
D03*
X3295200D02*
D03*
Y316000D02*
D03*
X3775200D02*
D03*
Y300000D02*
D03*
X477200D02*
D03*
Y316000D02*
D03*
X957200D02*
D03*
Y300000D02*
D03*
X1437200D02*
D03*
Y316000D02*
D03*
X1917200D02*
D03*
Y300000D02*
D03*
X2397200D02*
D03*
Y316000D02*
D03*
X2877200D02*
D03*
Y300000D02*
D03*
X3357200D02*
D03*
Y316000D02*
D03*
X3837200D02*
D03*
Y300000D02*
D03*
X653200Y561000D02*
D03*
Y545000D02*
D03*
X1133200D02*
D03*
Y561000D02*
D03*
X1613200D02*
D03*
Y545000D02*
D03*
X2093200D02*
D03*
Y561000D02*
D03*
X2573200D02*
D03*
Y545000D02*
D03*
X3053200D02*
D03*
Y561000D02*
D03*
X3533200D02*
D03*
Y545000D02*
D03*
X4013200D02*
D03*
Y561000D02*
D03*
X619760Y218060D02*
D03*
Y234060D02*
D03*
X3758200Y497000D02*
D03*
Y513000D02*
D03*
X3249200Y501000D02*
D03*
Y517000D02*
D03*
Y460000D02*
D03*
Y476000D02*
D03*
X1329200Y501000D02*
D03*
Y517000D02*
D03*
Y460000D02*
D03*
Y476000D02*
D03*
X2769200Y501000D02*
D03*
Y517000D02*
D03*
Y460000D02*
D03*
Y476000D02*
D03*
X1809200Y501000D02*
D03*
Y517000D02*
D03*
Y460000D02*
D03*
Y476000D02*
D03*
X2289200Y501000D02*
D03*
Y517000D02*
D03*
Y460000D02*
D03*
Y476000D02*
D03*
X849200Y501000D02*
D03*
Y517000D02*
D03*
Y460000D02*
D03*
Y476000D02*
D03*
X3729200Y501000D02*
D03*
Y517000D02*
D03*
Y460000D02*
D03*
Y476000D02*
D03*
X369200Y501000D02*
D03*
Y517000D02*
D03*
Y460000D02*
D03*
Y476000D02*
D03*
X1895450Y2464362D02*
D03*
Y2480362D02*
D03*
X1425200Y2705000D02*
D03*
Y2689000D02*
D03*
X1616200Y2776000D02*
D03*
Y2760000D02*
D03*
X1581870Y2760080D02*
D03*
Y2776080D02*
D03*
X3979760Y234060D02*
D03*
Y218060D02*
D03*
X3499760D02*
D03*
Y234060D02*
D03*
X3019760D02*
D03*
Y218060D02*
D03*
X2539760D02*
D03*
Y234060D02*
D03*
X2059760D02*
D03*
Y218060D02*
D03*
X1579760D02*
D03*
Y234060D02*
D03*
X1099760D02*
D03*
Y218060D02*
D03*
X1109790Y2893000D02*
D03*
Y2909000D02*
D03*
X1938630Y2480362D02*
D03*
Y2464362D02*
D03*
X1956410Y2480362D02*
D03*
Y2464362D02*
D03*
X1972230Y2382802D02*
D03*
Y2398802D02*
D03*
X2031850Y2366062D02*
D03*
Y2350062D02*
D03*
X1990010Y2382802D02*
D03*
Y2398802D02*
D03*
X1251820Y2687692D02*
D03*
Y2703692D02*
D03*
X1637700Y2715000D02*
D03*
Y2699000D02*
D03*
X500700Y2715210D02*
D03*
Y2699210D02*
D03*
X529950Y2699210D02*
D03*
Y2715210D02*
D03*
X684090Y2683380D02*
D03*
Y2699380D02*
D03*
X741450Y2853660D02*
D03*
Y2869660D02*
D03*
X2423730Y2390478D02*
D03*
Y2406478D02*
D03*
X2402200Y2441000D02*
D03*
Y2457000D02*
D03*
X2449130Y2406478D02*
D03*
Y2390478D02*
D03*
X2511090Y2202478D02*
D03*
Y2186478D02*
D03*
X2488230Y2254218D02*
D03*
Y2238218D02*
D03*
X2459200Y1988000D02*
D03*
Y2004000D02*
D03*
Y2032000D02*
D03*
Y2048000D02*
D03*
X2429150Y2081530D02*
D03*
Y2065530D02*
D03*
X2679550Y2306138D02*
D03*
Y2290138D02*
D03*
X2725270Y2243478D02*
D03*
Y2259478D02*
D03*
X3147200Y2459000D02*
D03*
Y2475000D02*
D03*
X2660560Y2031638D02*
D03*
Y2015638D02*
D03*
X2883200Y2389000D02*
D03*
Y2405000D02*
D03*
X2536490Y2186478D02*
D03*
Y2202478D02*
D03*
X2533200Y1983000D02*
D03*
Y1967000D02*
D03*
X2683200Y1988000D02*
D03*
Y2004000D02*
D03*
X2635160Y2015638D02*
D03*
Y2031638D02*
D03*
X2699710Y2259478D02*
D03*
Y2243478D02*
D03*
X2848160Y2099042D02*
D03*
Y2115042D02*
D03*
X3052700Y2104122D02*
D03*
Y2120122D02*
D03*
X398200Y497000D02*
D03*
Y513000D02*
D03*
X878200D02*
D03*
Y497000D02*
D03*
X1358200D02*
D03*
Y513000D02*
D03*
X1838200D02*
D03*
Y497000D02*
D03*
X2318200D02*
D03*
Y513000D02*
D03*
X2798200D02*
D03*
Y497000D02*
D03*
X3278200D02*
D03*
Y513000D02*
D03*
D27*
X1003328Y2774500D02*
D03*
Y2768000D02*
D03*
Y2761500D02*
D03*
X979072D02*
D03*
Y2768000D02*
D03*
Y2774500D02*
D03*
D28*
X1061530Y2751140D02*
D03*
X1051370Y2773238D02*
D03*
X1071690D02*
D03*
X575470Y392270D02*
D03*
X585630Y370172D02*
D03*
X565310D02*
D03*
X1055470Y392270D02*
D03*
X1065630Y370172D02*
D03*
X1045310D02*
D03*
X1535470Y392270D02*
D03*
X1545630Y370172D02*
D03*
X1525310D02*
D03*
X2015470Y392270D02*
D03*
X2025630Y370172D02*
D03*
X2005310D02*
D03*
X2495470Y392270D02*
D03*
X2505630Y370172D02*
D03*
X2485310D02*
D03*
X2975470Y392270D02*
D03*
X2985630Y370172D02*
D03*
X2965310D02*
D03*
X3455470Y392270D02*
D03*
X3465630Y370172D02*
D03*
X3445310D02*
D03*
X3935470Y392270D02*
D03*
X3945630Y370172D02*
D03*
X3925310D02*
D03*
D29*
X2249950Y2660250D02*
D03*
X2271950Y2669750D02*
D03*
Y2650750D02*
D03*
X1882830Y2655242D02*
D03*
X1860830Y2645742D02*
D03*
Y2664742D02*
D03*
X3850138Y712854D02*
D03*
Y693854D02*
D03*
X3872138Y703354D02*
D03*
X4019200Y703500D02*
D03*
Y722500D02*
D03*
X3997200Y713000D02*
D03*
X3779200Y703500D02*
D03*
Y722500D02*
D03*
X3757200Y713000D02*
D03*
X3539200Y703500D02*
D03*
Y722500D02*
D03*
X3517200Y713000D02*
D03*
X3299200Y703500D02*
D03*
Y722500D02*
D03*
X3277200Y713000D02*
D03*
X3059200Y703500D02*
D03*
Y722500D02*
D03*
X3037200Y713000D02*
D03*
X2819200Y703500D02*
D03*
Y722500D02*
D03*
X2797200Y713000D02*
D03*
X2579200Y703500D02*
D03*
Y722500D02*
D03*
X2557200Y713000D02*
D03*
X2339200Y703500D02*
D03*
Y722500D02*
D03*
X2317200Y713000D02*
D03*
X2099200Y703500D02*
D03*
Y722500D02*
D03*
X2077200Y713000D02*
D03*
X1859200Y703500D02*
D03*
Y722500D02*
D03*
X1837200Y713000D02*
D03*
X1619200Y703500D02*
D03*
Y722500D02*
D03*
X1597200Y713000D02*
D03*
X1379200Y703500D02*
D03*
Y722500D02*
D03*
X1357200Y713000D02*
D03*
X1139200Y703500D02*
D03*
Y722500D02*
D03*
X1117200Y713000D02*
D03*
X899200Y703500D02*
D03*
Y722500D02*
D03*
X877200Y713000D02*
D03*
X659200Y703500D02*
D03*
Y722500D02*
D03*
X637200Y713000D02*
D03*
X419200Y703500D02*
D03*
Y722500D02*
D03*
X397200Y713000D02*
D03*
X250138Y712854D02*
D03*
Y693854D02*
D03*
X272138Y703354D02*
D03*
X490138Y712854D02*
D03*
Y693854D02*
D03*
X512138Y703354D02*
D03*
X730138Y712854D02*
D03*
Y693854D02*
D03*
X752138Y703354D02*
D03*
X970138Y712854D02*
D03*
Y693854D02*
D03*
X992138Y703354D02*
D03*
X1210138Y712854D02*
D03*
Y693854D02*
D03*
X1232138Y703354D02*
D03*
X1450138Y712854D02*
D03*
Y693854D02*
D03*
X1472138Y703354D02*
D03*
X1690138Y712854D02*
D03*
Y693854D02*
D03*
X1712138Y703354D02*
D03*
X1930138Y712854D02*
D03*
Y693854D02*
D03*
X1952138Y703354D02*
D03*
X2170138Y712854D02*
D03*
Y693854D02*
D03*
X2192138Y703354D02*
D03*
X2410138Y712854D02*
D03*
Y693854D02*
D03*
X2432138Y703354D02*
D03*
X2650138Y712854D02*
D03*
Y693854D02*
D03*
X2672138Y703354D02*
D03*
X2890138Y712854D02*
D03*
Y693854D02*
D03*
X2912138Y703354D02*
D03*
X3130138Y712854D02*
D03*
Y693854D02*
D03*
X3152138Y703354D02*
D03*
X3370138Y712854D02*
D03*
Y693854D02*
D03*
X3392138Y703354D02*
D03*
X3610138Y712854D02*
D03*
Y693854D02*
D03*
X3632138Y703354D02*
D03*
X1807490Y2718082D02*
D03*
Y2699082D02*
D03*
X1829490Y2708582D02*
D03*
X2185700Y2732000D02*
D03*
Y2713000D02*
D03*
X2207700Y2722500D02*
D03*
X2249200Y2732750D02*
D03*
Y2713750D02*
D03*
X2271200Y2723250D02*
D03*
D30*
X2196950Y2648750D02*
D03*
X2187450Y2670750D02*
D03*
X2206450D02*
D03*
X1818490Y2668782D02*
D03*
X1827990Y2646782D02*
D03*
X1808990D02*
D03*
X1862330Y2700122D02*
D03*
X1881330D02*
D03*
X1871830Y2722122D02*
D03*
D31*
X1084390Y2853780D02*
D03*
X995390D02*
D03*
X1084390Y2908780D02*
D03*
X995390D02*
D03*
X1558700Y2903000D02*
D03*
X1647700D02*
D03*
X1558700Y2848000D02*
D03*
X1647700D02*
D03*
D32*
X1031890Y2852780D02*
D03*
X1047890D02*
D03*
X1023890D02*
D03*
X1039890D02*
D03*
X1055640D02*
D03*
X1618950Y2847000D02*
D03*
X1603200D02*
D03*
X1587200D02*
D03*
X1611200D02*
D03*
X1595200D02*
D03*
D33*
X3117200Y2499000D02*
D03*
X3137200D02*
D03*
X2196200Y1284000D02*
D03*
X2176200D02*
D03*
X2927200Y2539000D02*
D03*
X2947200D02*
D03*
X3714200Y417000D02*
D03*
X3734200D02*
D03*
X3234200D02*
D03*
X3254200D02*
D03*
X1314200D02*
D03*
X1334200D02*
D03*
X2754200D02*
D03*
X2774200D02*
D03*
X1794200D02*
D03*
X1814200D02*
D03*
X2274200D02*
D03*
X2294200D02*
D03*
X834200D02*
D03*
X854200D02*
D03*
X354200D02*
D03*
X374200D02*
D03*
X2977820Y2038462D02*
D03*
X2997820D02*
D03*
X2109200Y1313000D02*
D03*
X2089200D02*
D03*
X2028200Y1312000D02*
D03*
X2048200D02*
D03*
X3881200Y751000D02*
D03*
X3861200D02*
D03*
X3881200Y781000D02*
D03*
X3861200D02*
D03*
X3641200Y751000D02*
D03*
X3621200D02*
D03*
X3641200Y781000D02*
D03*
X3621200D02*
D03*
X3401200Y751000D02*
D03*
X3381200D02*
D03*
X3401200Y781000D02*
D03*
X3381200D02*
D03*
X3161200Y751000D02*
D03*
X3141200D02*
D03*
X3161200Y781000D02*
D03*
X3141200D02*
D03*
X2921200Y751000D02*
D03*
X2901200D02*
D03*
X2921200Y781000D02*
D03*
X2901200D02*
D03*
X2681200Y751000D02*
D03*
X2661200D02*
D03*
X2681200Y781000D02*
D03*
X2661200D02*
D03*
X2441200Y751000D02*
D03*
X2421200D02*
D03*
X2441200Y781000D02*
D03*
X2421200D02*
D03*
X2201200Y751000D02*
D03*
X2181200D02*
D03*
X2201200Y781000D02*
D03*
X2181200D02*
D03*
X1961200Y751000D02*
D03*
X1941200D02*
D03*
X1961200Y781000D02*
D03*
X1941200D02*
D03*
X1721200Y751000D02*
D03*
X1701200D02*
D03*
X1721200Y781000D02*
D03*
X1701200D02*
D03*
X1481200Y751000D02*
D03*
X1461200D02*
D03*
X1481200Y781000D02*
D03*
X1461200D02*
D03*
X1241200Y751000D02*
D03*
X1221200D02*
D03*
X1241200Y781000D02*
D03*
X1221200D02*
D03*
X1001200Y751000D02*
D03*
X981200D02*
D03*
X1001200Y781000D02*
D03*
X981200D02*
D03*
X761200Y751000D02*
D03*
X741200D02*
D03*
X761200Y781000D02*
D03*
X741200D02*
D03*
X521200Y751000D02*
D03*
X501200D02*
D03*
X521200Y781000D02*
D03*
X501200D02*
D03*
X281200Y751000D02*
D03*
X261200D02*
D03*
X281200Y781000D02*
D03*
X261200D02*
D03*
X2108200Y2508000D02*
D03*
X2128200D02*
D03*
X507950Y2671710D02*
D03*
X527950D02*
D03*
X735700Y2666660D02*
D03*
X715700D02*
D03*
X2659200Y2228000D02*
D03*
X2639200D02*
D03*
X2460130Y2164938D02*
D03*
X2440130D02*
D03*
X2573200Y1997000D02*
D03*
X2553200D02*
D03*
X3150220Y2038462D02*
D03*
X3130220D02*
D03*
Y2015602D02*
D03*
X3150220D02*
D03*
X2939440Y2038462D02*
D03*
X2919440D02*
D03*
Y2015602D02*
D03*
X2939440D02*
D03*
X2769920Y2016280D02*
D03*
X2789920D02*
D03*
X2789580Y2038462D02*
D03*
X2769580D02*
D03*
X2977820Y2015602D02*
D03*
X2997820D02*
D03*
X376080Y827200D02*
D03*
X396080D02*
D03*
Y855140D02*
D03*
X376080D02*
D03*
Y799260D02*
D03*
X396080D02*
D03*
X636080Y827200D02*
D03*
X616080D02*
D03*
Y855140D02*
D03*
X636080D02*
D03*
Y799260D02*
D03*
X616080D02*
D03*
X856080Y827200D02*
D03*
X876080D02*
D03*
Y855140D02*
D03*
X856080D02*
D03*
Y799260D02*
D03*
X876080D02*
D03*
X1116080Y827200D02*
D03*
X1096080D02*
D03*
Y855140D02*
D03*
X1116080D02*
D03*
Y799260D02*
D03*
X1096080D02*
D03*
X1336080Y827200D02*
D03*
X1356080D02*
D03*
Y855140D02*
D03*
X1336080D02*
D03*
Y799260D02*
D03*
X1356080D02*
D03*
X1596080Y827200D02*
D03*
X1576080D02*
D03*
Y855140D02*
D03*
X1596080D02*
D03*
Y799260D02*
D03*
X1576080D02*
D03*
X1816080Y827200D02*
D03*
X1836080D02*
D03*
Y855140D02*
D03*
X1816080D02*
D03*
Y799260D02*
D03*
X1836080D02*
D03*
X2076080Y827200D02*
D03*
X2056080D02*
D03*
Y855140D02*
D03*
X2076080D02*
D03*
Y799260D02*
D03*
X2056080D02*
D03*
X2296080Y827200D02*
D03*
X2316080D02*
D03*
Y855140D02*
D03*
X2296080D02*
D03*
Y799260D02*
D03*
X2316080D02*
D03*
X2556080Y827200D02*
D03*
X2536080D02*
D03*
Y855140D02*
D03*
X2556080D02*
D03*
Y799260D02*
D03*
X2536080D02*
D03*
X2776080Y827200D02*
D03*
X2796080D02*
D03*
Y855140D02*
D03*
X2776080D02*
D03*
Y799260D02*
D03*
X2796080D02*
D03*
X3036080Y827200D02*
D03*
X3016080D02*
D03*
Y855140D02*
D03*
X3036080D02*
D03*
Y799260D02*
D03*
X3016080D02*
D03*
X3256080Y827200D02*
D03*
X3276080D02*
D03*
Y855140D02*
D03*
X3256080D02*
D03*
Y799260D02*
D03*
X3276080D02*
D03*
X3516080Y827200D02*
D03*
X3496080D02*
D03*
Y855140D02*
D03*
X3516080D02*
D03*
Y799260D02*
D03*
X3496080D02*
D03*
X3736080Y827200D02*
D03*
X3756080D02*
D03*
Y855140D02*
D03*
X3736080D02*
D03*
Y799260D02*
D03*
X3756080D02*
D03*
X3996080Y827200D02*
D03*
X3976080D02*
D03*
Y855140D02*
D03*
X3996080D02*
D03*
Y799260D02*
D03*
X3976080D02*
D03*
X2111200Y2539000D02*
D03*
X2091200D02*
D03*
D34*
X2994200Y2658000D02*
D03*
X2978200D02*
D03*
X1261200Y1379000D02*
D03*
X1245200D02*
D03*
X2839200Y1377000D02*
D03*
X2855200D02*
D03*
X3040200Y2860000D02*
D03*
X3024200D02*
D03*
X232200Y1377000D02*
D03*
X248200D02*
D03*
X1969200Y1146000D02*
D03*
X1953200D02*
D03*
Y1118000D02*
D03*
X1969200D02*
D03*
Y1090000D02*
D03*
X1953200D02*
D03*
X2223320Y1912360D02*
D03*
X2239320D02*
D03*
X2223320Y1935220D02*
D03*
X2239320D02*
D03*
X2239320Y1991100D02*
D03*
X2223320D02*
D03*
X2239320Y2013960D02*
D03*
X2223320D02*
D03*
X2223320Y2069840D02*
D03*
X2239320D02*
D03*
X2223320Y2092700D02*
D03*
X2239320D02*
D03*
X2240560Y2145880D02*
D03*
X2224560D02*
D03*
X2240560Y2167630D02*
D03*
X2224560D02*
D03*
X1247700Y1842265D02*
D03*
X1231700D02*
D03*
Y1883312D02*
D03*
X1247700D02*
D03*
Y1924358D02*
D03*
X1231700D02*
D03*
Y1965405D02*
D03*
X1247700D02*
D03*
X2109770Y2401242D02*
D03*
X2093770D02*
D03*
Y2340002D02*
D03*
X2109770D02*
D03*
Y2360322D02*
D03*
X2093770D02*
D03*
Y2380642D02*
D03*
X2109770D02*
D03*
X1969200Y1174000D02*
D03*
X1953200D02*
D03*
X2207450Y1178250D02*
D03*
X2223450D02*
D03*
X714700Y2828660D02*
D03*
X730700D02*
D03*
Y2806660D02*
D03*
X714700D02*
D03*
X2207380Y1197630D02*
D03*
X2223380D02*
D03*
X3921200Y553000D02*
D03*
X3905200D02*
D03*
X3921200Y527000D02*
D03*
X3905200D02*
D03*
Y499000D02*
D03*
X3921200D02*
D03*
X3867200Y360000D02*
D03*
X3883200D02*
D03*
X3905200Y471000D02*
D03*
X3921200D02*
D03*
Y443000D02*
D03*
X3905200D02*
D03*
X3425200Y553000D02*
D03*
X3441200D02*
D03*
X3425200Y527000D02*
D03*
X3441200D02*
D03*
Y499000D02*
D03*
X3425200D02*
D03*
X3403200Y360000D02*
D03*
X3387200D02*
D03*
X3441200Y471000D02*
D03*
X3425200D02*
D03*
Y443000D02*
D03*
X3441200D02*
D03*
X2961200Y553000D02*
D03*
X2945200D02*
D03*
X2961200Y527000D02*
D03*
X2945200D02*
D03*
Y499000D02*
D03*
X2961200D02*
D03*
X2907200Y360000D02*
D03*
X2923200D02*
D03*
X2945200Y471000D02*
D03*
X2961200D02*
D03*
Y443000D02*
D03*
X2945200D02*
D03*
X2465200Y553000D02*
D03*
X2481200D02*
D03*
X2465200Y527000D02*
D03*
X2481200D02*
D03*
Y499000D02*
D03*
X2465200D02*
D03*
X2443200Y360000D02*
D03*
X2427200D02*
D03*
X2481200Y471000D02*
D03*
X2465200D02*
D03*
Y443000D02*
D03*
X2481200D02*
D03*
X2001200Y553000D02*
D03*
X1985200D02*
D03*
X2001200Y527000D02*
D03*
X1985200D02*
D03*
Y499000D02*
D03*
X2001200D02*
D03*
X1947200Y360000D02*
D03*
X1963200D02*
D03*
X1985200Y471000D02*
D03*
X2001200D02*
D03*
Y443000D02*
D03*
X1985200D02*
D03*
X1505200Y553000D02*
D03*
X1521200D02*
D03*
X1505200Y527000D02*
D03*
X1521200D02*
D03*
Y499000D02*
D03*
X1505200D02*
D03*
X1483200Y360000D02*
D03*
X1467200D02*
D03*
X1521200Y471000D02*
D03*
X1505200D02*
D03*
Y443000D02*
D03*
X1521200D02*
D03*
X1041200Y553000D02*
D03*
X1025200D02*
D03*
X1041200Y527000D02*
D03*
X1025200D02*
D03*
Y499000D02*
D03*
X1041200D02*
D03*
X987200Y360000D02*
D03*
X1003200D02*
D03*
X1025200Y471000D02*
D03*
X1041200D02*
D03*
Y443000D02*
D03*
X1025200D02*
D03*
X545200Y553000D02*
D03*
X561200D02*
D03*
X545200Y527000D02*
D03*
X561200D02*
D03*
Y499000D02*
D03*
X545200D02*
D03*
Y471000D02*
D03*
X561200D02*
D03*
Y443000D02*
D03*
X545200D02*
D03*
X2935190Y2359355D02*
D03*
X2951190D02*
D03*
X2921200Y2427000D02*
D03*
X2905200D02*
D03*
X2916010Y2359355D02*
D03*
X2900010D02*
D03*
X3104200Y2459000D02*
D03*
X3120200D02*
D03*
X3106120Y2365535D02*
D03*
X3122120D02*
D03*
X3090638Y2386405D02*
D03*
X3106638D02*
D03*
X403340Y764460D02*
D03*
X419340D02*
D03*
X643340D02*
D03*
X659340D02*
D03*
X883340D02*
D03*
X899340D02*
D03*
X1123340D02*
D03*
X1139340D02*
D03*
X1363340D02*
D03*
X1379340D02*
D03*
X1603340D02*
D03*
X1619340D02*
D03*
X1843340D02*
D03*
X1859340D02*
D03*
X2083340D02*
D03*
X2099340D02*
D03*
X2323340D02*
D03*
X2339340D02*
D03*
X2563340D02*
D03*
X2579340D02*
D03*
X2803340D02*
D03*
X2819340D02*
D03*
X3043340D02*
D03*
X3059340D02*
D03*
X3283340D02*
D03*
X3299340D02*
D03*
X3523340D02*
D03*
X3539340D02*
D03*
X3763340D02*
D03*
X3779340D02*
D03*
X4003340D02*
D03*
X4019340D02*
D03*
X2878260Y2107042D02*
D03*
X2894260D02*
D03*
X2876700Y2146000D02*
D03*
X2892700D02*
D03*
X2892950Y2128500D02*
D03*
X2876950D02*
D03*
X2827882Y2118220D02*
D03*
X2811882D02*
D03*
Y2138200D02*
D03*
X2827882D02*
D03*
X3103880Y2104502D02*
D03*
X3087880D02*
D03*
X3103950Y2145000D02*
D03*
X3087950D02*
D03*
Y2125000D02*
D03*
X3103950D02*
D03*
X3015380Y2119742D02*
D03*
X3031380D02*
D03*
Y2140062D02*
D03*
X3015380D02*
D03*
X1247700Y2004750D02*
D03*
X1231700D02*
D03*
X523200Y360000D02*
D03*
X507200D02*
D03*
X1991200Y2520000D02*
D03*
X1975200D02*
D03*
X1976200Y2499000D02*
D03*
X1992200D02*
D03*
X1991200Y2557000D02*
D03*
X2007200D02*
D03*
X1938200Y2540000D02*
D03*
X1954200D02*
D03*
X538200Y290000D02*
D03*
X522200D02*
D03*
X1002200D02*
D03*
X1018200D02*
D03*
X1498200D02*
D03*
X1482200D02*
D03*
X1962200D02*
D03*
X1978200D02*
D03*
X2458200D02*
D03*
X2442200D02*
D03*
X2922200D02*
D03*
X2938200D02*
D03*
X3418200D02*
D03*
X3402200D02*
D03*
X3882200D02*
D03*
X3898200D02*
D03*
X3712200Y440000D02*
D03*
X3728200D02*
D03*
X3232200D02*
D03*
X3248200D02*
D03*
X1312200D02*
D03*
X1328200D02*
D03*
X2752200D02*
D03*
X2768200D02*
D03*
X1792200D02*
D03*
X1808200D02*
D03*
X2272200D02*
D03*
X2288200D02*
D03*
X832200D02*
D03*
X848200D02*
D03*
X352200D02*
D03*
X368200D02*
D03*
X1693240Y2901730D02*
D03*
X1677240D02*
D03*
X2239320Y1889500D02*
D03*
X2223320D02*
D03*
X2159280Y1940960D02*
D03*
X2143280D02*
D03*
X2239320Y1968240D02*
D03*
X2223320D02*
D03*
X2160580Y2021580D02*
D03*
X2144580D02*
D03*
X2239320Y2046980D02*
D03*
X2223320D02*
D03*
X2160520Y2098440D02*
D03*
X2144520D02*
D03*
X2224560Y2124880D02*
D03*
X2240560D02*
D03*
X1135200Y2644000D02*
D03*
X1151200D02*
D03*
X1896200Y2541000D02*
D03*
X1912200D02*
D03*
X2145700Y2612000D02*
D03*
X2129700D02*
D03*
X2090200Y2560000D02*
D03*
X2106200D02*
D03*
X1394460Y2762330D02*
D03*
X1378460D02*
D03*
X1291200Y2568000D02*
D03*
X1307200D02*
D03*
X1276860Y2762330D02*
D03*
X1292860D02*
D03*
X1353060Y2742010D02*
D03*
X1369060D02*
D03*
X1318260D02*
D03*
X1302260D02*
D03*
X1678240Y2846730D02*
D03*
X1694240D02*
D03*
X1559810Y2714322D02*
D03*
X1575810D02*
D03*
X1677200Y2771000D02*
D03*
X1693200D02*
D03*
Y2802000D02*
D03*
X1677200D02*
D03*
X2160200Y2180000D02*
D03*
X2144200D02*
D03*
X1416200Y1832750D02*
D03*
X1432200D02*
D03*
X1971200Y1228730D02*
D03*
X1987200D02*
D03*
X2032200Y1291000D02*
D03*
X2048200D02*
D03*
X2106200Y1293000D02*
D03*
X2090200D02*
D03*
X2174200Y1039000D02*
D03*
X2190200D02*
D03*
X2178180Y1156811D02*
D03*
X2162180D02*
D03*
X2181450Y1185000D02*
D03*
X2165450D02*
D03*
X2177200Y1256000D02*
D03*
X2193200D02*
D03*
X2811882Y2100440D02*
D03*
X2827882D02*
D03*
X2900010Y2316175D02*
D03*
X2916010D02*
D03*
X2900010Y2339035D02*
D03*
X2916010D02*
D03*
X3106120Y2307115D02*
D03*
X3122120D02*
D03*
X3138200Y2335000D02*
D03*
X3154200D02*
D03*
X2937440Y2058782D02*
D03*
X2921440D02*
D03*
X2995820Y2076562D02*
D03*
X2979820D02*
D03*
X2921440D02*
D03*
X2937440D02*
D03*
X2771580Y2058782D02*
D03*
X2787580D02*
D03*
X2995820D02*
D03*
X2979820D02*
D03*
X3031380Y2099422D02*
D03*
X3015380D02*
D03*
X3148220Y2076562D02*
D03*
X3132220D02*
D03*
Y2058782D02*
D03*
X3148220D02*
D03*
X2787580Y2076562D02*
D03*
X2771580D02*
D03*
X1902690Y2436802D02*
D03*
X1886690D02*
D03*
Y2398702D02*
D03*
X1902690D02*
D03*
X561200Y415000D02*
D03*
X545200D02*
D03*
X1025200D02*
D03*
X1041200D02*
D03*
X1521200D02*
D03*
X1505200D02*
D03*
X1985200D02*
D03*
X2001200D02*
D03*
X2481200D02*
D03*
X2465200D02*
D03*
X2945200D02*
D03*
X2961200D02*
D03*
X3441200D02*
D03*
X3425200D02*
D03*
X3905200D02*
D03*
X3921200D02*
D03*
D35*
X2977800Y2631100D02*
D03*
X2990500D02*
D03*
X3003200D02*
D03*
X3117500D02*
D03*
X3130200D02*
D03*
X3142900D02*
D03*
Y2539000D02*
D03*
X3130200D02*
D03*
X3117500D02*
D03*
X3003200D02*
D03*
X2990500D02*
D03*
X2977800D02*
D03*
D36*
X1616550Y2621222D02*
D03*
Y2625722D02*
D03*
Y2630222D02*
D03*
Y2634722D02*
D03*
Y2639222D02*
D03*
Y2643722D02*
D03*
X1586550Y2621222D02*
D03*
Y2625722D02*
D03*
Y2630222D02*
D03*
Y2634722D02*
D03*
Y2639222D02*
D03*
Y2643722D02*
D03*
D37*
X1601550Y2632722D02*
D03*
D38*
X1341750Y2140610D02*
D03*
Y2124110D02*
D03*
X1369690D02*
D03*
Y2140610D02*
D03*
X1397630D02*
D03*
Y2124110D02*
D03*
X1425570D02*
D03*
Y2140610D02*
D03*
D39*
X1230950Y2108000D02*
D03*
X1247450D02*
D03*
D40*
X1175450Y2209500D02*
D03*
X1246950D02*
D03*
Y2166500D02*
D03*
X1175450D02*
D03*
D41*
X2039390Y2468240D02*
D03*
X2034390D02*
D03*
X2019390D02*
D03*
X2024390D02*
D03*
X2029390D02*
D03*
X2044390D02*
D03*
Y2430240D02*
D03*
X2039390D02*
D03*
X2034390D02*
D03*
X2029390D02*
D03*
X2024390D02*
D03*
X2019390D02*
D03*
D42*
X2031890Y2449240D02*
D03*
D43*
X2050890Y2461740D02*
D03*
Y2456740D02*
D03*
Y2451740D02*
D03*
Y2446740D02*
D03*
Y2441740D02*
D03*
Y2436740D02*
D03*
X2012890D02*
D03*
Y2441740D02*
D03*
Y2446740D02*
D03*
Y2451740D02*
D03*
Y2456740D02*
D03*
Y2461740D02*
D03*
D44*
X1472200Y1763750D02*
D03*
X1477200D02*
D03*
X1482200D02*
D03*
X1487200D02*
D03*
X1492200D02*
D03*
X1497200D02*
D03*
X1502200D02*
D03*
X1507200D02*
D03*
X1512200D02*
D03*
X1517200D02*
D03*
X1522200D02*
D03*
X1527200D02*
D03*
X1532200D02*
D03*
X1537200D02*
D03*
X1542200D02*
D03*
X1547200D02*
D03*
X1552200D02*
D03*
X1557200D02*
D03*
X1562200D02*
D03*
X1567200D02*
D03*
X1572200D02*
D03*
X1577200D02*
D03*
X1582200D02*
D03*
X1587200D02*
D03*
X1592200D02*
D03*
X1597200D02*
D03*
X1602200D02*
D03*
X1607200D02*
D03*
X1612200D02*
D03*
X1617200D02*
D03*
X1622200D02*
D03*
X1627200D02*
D03*
X1632200D02*
D03*
X1637200D02*
D03*
X1642200D02*
D03*
X1647200D02*
D03*
X1652200D02*
D03*
X1657200D02*
D03*
X1662200D02*
D03*
X1667200D02*
D03*
X1672200D02*
D03*
X1677200D02*
D03*
X1682200D02*
D03*
X1687200D02*
D03*
X1692200D02*
D03*
X1697200D02*
D03*
X1702200D02*
D03*
X1707200D02*
D03*
X1712200D02*
D03*
X1717200D02*
D03*
X1722200D02*
D03*
X1727200D02*
D03*
Y2057250D02*
D03*
X1722200D02*
D03*
X1717200D02*
D03*
X1712200D02*
D03*
X1707200D02*
D03*
X1702200D02*
D03*
X1697200D02*
D03*
X1692200D02*
D03*
X1687200D02*
D03*
X1682200D02*
D03*
X1677200D02*
D03*
X1672200D02*
D03*
X1667200D02*
D03*
X1662200D02*
D03*
X1657200D02*
D03*
X1652200D02*
D03*
X1647200D02*
D03*
X1642200D02*
D03*
X1637200D02*
D03*
X1632200D02*
D03*
X1627200D02*
D03*
X1622200D02*
D03*
X1617200D02*
D03*
X1612200D02*
D03*
X1607200D02*
D03*
X1602200D02*
D03*
X1597200D02*
D03*
X1592200D02*
D03*
X1587200D02*
D03*
X1582200D02*
D03*
X1577200D02*
D03*
X1572200D02*
D03*
X1567200D02*
D03*
X1562200D02*
D03*
X1557200D02*
D03*
X1552200D02*
D03*
X1547200D02*
D03*
X1542200D02*
D03*
X1537200D02*
D03*
X1532200D02*
D03*
X1527200D02*
D03*
X1522200D02*
D03*
X1517200D02*
D03*
X1512200D02*
D03*
X1507200D02*
D03*
X1502200D02*
D03*
X1497200D02*
D03*
X1492200D02*
D03*
X1487200D02*
D03*
X1482200D02*
D03*
X1477200D02*
D03*
X1472200D02*
D03*
D45*
X1452950Y2038000D02*
D03*
Y2033000D02*
D03*
Y2028000D02*
D03*
Y2023000D02*
D03*
Y2018000D02*
D03*
Y2013000D02*
D03*
Y2008000D02*
D03*
Y2003000D02*
D03*
Y1998000D02*
D03*
Y1993000D02*
D03*
Y1988000D02*
D03*
Y1983000D02*
D03*
Y1978000D02*
D03*
Y1973000D02*
D03*
Y1968000D02*
D03*
Y1963000D02*
D03*
Y1958000D02*
D03*
Y1953000D02*
D03*
Y1948000D02*
D03*
Y1943000D02*
D03*
Y1938000D02*
D03*
Y1933000D02*
D03*
Y1928000D02*
D03*
Y1923000D02*
D03*
Y1918000D02*
D03*
Y1913000D02*
D03*
Y1908000D02*
D03*
Y1903000D02*
D03*
Y1898000D02*
D03*
Y1893000D02*
D03*
Y1888000D02*
D03*
Y1883000D02*
D03*
Y1878000D02*
D03*
Y1873000D02*
D03*
Y1868000D02*
D03*
Y1863000D02*
D03*
Y1858000D02*
D03*
Y1853000D02*
D03*
Y1848000D02*
D03*
Y1843000D02*
D03*
Y1838000D02*
D03*
Y1833000D02*
D03*
Y1828000D02*
D03*
Y1823000D02*
D03*
Y1818000D02*
D03*
Y1813000D02*
D03*
Y1808000D02*
D03*
Y1803000D02*
D03*
Y1798000D02*
D03*
Y1793000D02*
D03*
Y1788000D02*
D03*
Y1783000D02*
D03*
X1746450D02*
D03*
Y1788000D02*
D03*
Y1793000D02*
D03*
Y1798000D02*
D03*
Y1803000D02*
D03*
Y1808000D02*
D03*
Y1813000D02*
D03*
Y1818000D02*
D03*
Y1823000D02*
D03*
Y1828000D02*
D03*
Y1833000D02*
D03*
Y1838000D02*
D03*
Y1843000D02*
D03*
Y1848000D02*
D03*
Y1853000D02*
D03*
Y1858000D02*
D03*
Y1863000D02*
D03*
Y1868000D02*
D03*
Y1873000D02*
D03*
Y1878000D02*
D03*
Y1883000D02*
D03*
Y1888000D02*
D03*
Y1893000D02*
D03*
Y1898000D02*
D03*
Y1903000D02*
D03*
Y1908000D02*
D03*
Y1913000D02*
D03*
Y1918000D02*
D03*
Y1923000D02*
D03*
Y1928000D02*
D03*
Y1933000D02*
D03*
Y1938000D02*
D03*
Y1943000D02*
D03*
Y1948000D02*
D03*
Y1953000D02*
D03*
Y1958000D02*
D03*
Y1963000D02*
D03*
Y1968000D02*
D03*
Y1973000D02*
D03*
Y1978000D02*
D03*
Y1983000D02*
D03*
Y1988000D02*
D03*
Y1993000D02*
D03*
Y1998000D02*
D03*
Y2003000D02*
D03*
Y2008000D02*
D03*
Y2013000D02*
D03*
Y2018000D02*
D03*
Y2023000D02*
D03*
Y2028000D02*
D03*
Y2033000D02*
D03*
Y2038000D02*
D03*
D46*
X3911101Y932842D02*
D03*
X3885701D02*
D03*
X3645701D02*
D03*
X3671101D02*
D03*
X3431101D02*
D03*
X3405701D02*
D03*
X3165701D02*
D03*
X3191101D02*
D03*
X2951101D02*
D03*
X2925701D02*
D03*
X2685701D02*
D03*
X2711101D02*
D03*
X2471101D02*
D03*
X2445701D02*
D03*
X2205701D02*
D03*
X2231101D02*
D03*
X1991101D02*
D03*
X1965701D02*
D03*
X1725701D02*
D03*
X1751101D02*
D03*
X1511101D02*
D03*
X1485701D02*
D03*
X1245701D02*
D03*
X1271101D02*
D03*
X1031101D02*
D03*
X1005701D02*
D03*
X765701D02*
D03*
X791101D02*
D03*
X551101D02*
D03*
X525701D02*
D03*
X285701D02*
D03*
X311101D02*
D03*
Y970342D02*
D03*
X285701D02*
D03*
X525701D02*
D03*
X551101D02*
D03*
X791101D02*
D03*
X765701D02*
D03*
X1005701D02*
D03*
X1031101D02*
D03*
X1271101D02*
D03*
X1245701D02*
D03*
X1485701D02*
D03*
X1511101D02*
D03*
X1751101D02*
D03*
X1725701D02*
D03*
X1965701D02*
D03*
X1991101D02*
D03*
X2231101D02*
D03*
X2205701D02*
D03*
X2445701D02*
D03*
X2471101D02*
D03*
X2711101D02*
D03*
X2685701D02*
D03*
X2925701D02*
D03*
X2951101D02*
D03*
X3191101D02*
D03*
X3165701D02*
D03*
X3405701D02*
D03*
X3431101D02*
D03*
X3671101D02*
D03*
X3645701D02*
D03*
X3885701D02*
D03*
X3911101D02*
D03*
D47*
X1939350Y2590000D02*
D03*
X1952050D02*
D03*
X1964750D02*
D03*
X1977450D02*
D03*
X1990150D02*
D03*
X2002850D02*
D03*
X2015550D02*
D03*
X2028250D02*
D03*
X2040950D02*
D03*
X2053650D02*
D03*
X2066350D02*
D03*
X2079050D02*
D03*
Y2738000D02*
D03*
X2066350D02*
D03*
X2053650D02*
D03*
X2040950D02*
D03*
X2028250D02*
D03*
X2015550D02*
D03*
X2002850D02*
D03*
X1990150D02*
D03*
X1977450D02*
D03*
X1964750D02*
D03*
X1952050D02*
D03*
X1939350D02*
D03*
D48*
X3777200Y354000D02*
D03*
Y360500D02*
D03*
Y367000D02*
D03*
Y373500D02*
D03*
Y380000D02*
D03*
Y386500D02*
D03*
Y393000D02*
D03*
Y399500D02*
D03*
X3834600D02*
D03*
Y393000D02*
D03*
Y386500D02*
D03*
Y380000D02*
D03*
Y373500D02*
D03*
Y367000D02*
D03*
Y360500D02*
D03*
Y354000D02*
D03*
X3354600D02*
D03*
Y360500D02*
D03*
Y367000D02*
D03*
Y373500D02*
D03*
Y380000D02*
D03*
Y386500D02*
D03*
Y393000D02*
D03*
Y399500D02*
D03*
X3297200D02*
D03*
Y393000D02*
D03*
Y386500D02*
D03*
Y380000D02*
D03*
Y373500D02*
D03*
Y367000D02*
D03*
Y360500D02*
D03*
Y354000D02*
D03*
X2817200D02*
D03*
Y360500D02*
D03*
Y367000D02*
D03*
Y373500D02*
D03*
Y380000D02*
D03*
Y386500D02*
D03*
Y393000D02*
D03*
Y399500D02*
D03*
X2874600D02*
D03*
Y393000D02*
D03*
Y386500D02*
D03*
Y380000D02*
D03*
Y373500D02*
D03*
Y367000D02*
D03*
Y360500D02*
D03*
Y354000D02*
D03*
X2394600D02*
D03*
Y360500D02*
D03*
Y367000D02*
D03*
Y373500D02*
D03*
Y380000D02*
D03*
Y386500D02*
D03*
Y393000D02*
D03*
Y399500D02*
D03*
X2337200D02*
D03*
Y393000D02*
D03*
Y386500D02*
D03*
Y380000D02*
D03*
Y373500D02*
D03*
Y367000D02*
D03*
Y360500D02*
D03*
Y354000D02*
D03*
X1857200D02*
D03*
Y360500D02*
D03*
Y367000D02*
D03*
Y373500D02*
D03*
Y380000D02*
D03*
Y386500D02*
D03*
Y393000D02*
D03*
Y399500D02*
D03*
X1914600D02*
D03*
Y393000D02*
D03*
Y386500D02*
D03*
Y380000D02*
D03*
Y373500D02*
D03*
Y367000D02*
D03*
Y360500D02*
D03*
Y354000D02*
D03*
X1434600D02*
D03*
Y360500D02*
D03*
Y367000D02*
D03*
Y373500D02*
D03*
Y380000D02*
D03*
Y386500D02*
D03*
Y393000D02*
D03*
Y399500D02*
D03*
X1377200D02*
D03*
Y393000D02*
D03*
Y386500D02*
D03*
Y380000D02*
D03*
Y373500D02*
D03*
Y367000D02*
D03*
Y360500D02*
D03*
Y354000D02*
D03*
X897200D02*
D03*
Y360500D02*
D03*
Y367000D02*
D03*
Y373500D02*
D03*
Y380000D02*
D03*
Y386500D02*
D03*
Y393000D02*
D03*
Y399500D02*
D03*
X954600D02*
D03*
Y393000D02*
D03*
Y386500D02*
D03*
Y380000D02*
D03*
Y373500D02*
D03*
Y367000D02*
D03*
Y360500D02*
D03*
Y354000D02*
D03*
X474600D02*
D03*
Y360500D02*
D03*
Y367000D02*
D03*
Y373500D02*
D03*
Y380000D02*
D03*
Y386500D02*
D03*
Y393000D02*
D03*
Y399500D02*
D03*
X417200D02*
D03*
Y393000D02*
D03*
Y386500D02*
D03*
Y380000D02*
D03*
Y373500D02*
D03*
Y367000D02*
D03*
Y360500D02*
D03*
Y354000D02*
D03*
D49*
X2449130Y2493498D02*
D03*
X2725270Y2346498D02*
D03*
X2536490Y2288458D02*
D03*
X2635160Y1932198D02*
D03*
D50*
X2474530Y2440539D02*
D03*
X2461830D02*
D03*
X2449130D02*
D03*
X2436430D02*
D03*
X2423730D02*
D03*
X2699870Y2293539D02*
D03*
X2712570D02*
D03*
X2725270D02*
D03*
X2737970D02*
D03*
X2750670D02*
D03*
X2561890Y2235499D02*
D03*
X2549190D02*
D03*
X2536490D02*
D03*
X2523790D02*
D03*
X2511090D02*
D03*
X2660560Y1985157D02*
D03*
X2647860D02*
D03*
X2635160D02*
D03*
X2622460D02*
D03*
X2609760D02*
D03*
D51*
X547200Y323000D02*
D03*
X569298Y333160D02*
D03*
Y312840D02*
D03*
X1027200Y323000D02*
D03*
X1049298Y333160D02*
D03*
Y312840D02*
D03*
X1507200Y323000D02*
D03*
X1529298Y333160D02*
D03*
Y312840D02*
D03*
X1987200Y323000D02*
D03*
X2009298Y333160D02*
D03*
Y312840D02*
D03*
X2467200Y323000D02*
D03*
X2489298Y333160D02*
D03*
Y312840D02*
D03*
X2947200Y323000D02*
D03*
X2969298Y333160D02*
D03*
Y312840D02*
D03*
X3427200Y323000D02*
D03*
X3449298Y333160D02*
D03*
Y312840D02*
D03*
X3907200Y323000D02*
D03*
X3929298Y333160D02*
D03*
Y312840D02*
D03*
D52*
X3127200Y2405215D02*
D03*
X3108200D02*
D03*
Y2432215D02*
D03*
X3117700D02*
D03*
X3127200D02*
D03*
D53*
X2043304Y2515734D02*
D03*
X2052804D02*
D03*
X2062304D02*
D03*
Y2539734D02*
D03*
X2052804D02*
D03*
X2043304D02*
D03*
D54*
X1599430Y2715049D02*
D03*
X1605930D02*
D03*
X1612430D02*
D03*
Y2690792D02*
D03*
X1605930D02*
D03*
X1599430D02*
D03*
D55*
X2035480Y1271041D02*
D03*
X2040480D02*
D03*
X2045480D02*
D03*
X2050480D02*
D03*
X2055480D02*
D03*
X2060480D02*
D03*
X2065480D02*
D03*
X2070480D02*
D03*
X2075480D02*
D03*
X2080480D02*
D03*
X2085480D02*
D03*
X2090480D02*
D03*
X2095480D02*
D03*
X2100480D02*
D03*
X2105480D02*
D03*
X2110480D02*
D03*
Y1153439D02*
D03*
X2105480D02*
D03*
X2100480D02*
D03*
X2095480D02*
D03*
X2090480D02*
D03*
X2085480D02*
D03*
X2080480D02*
D03*
X2075480D02*
D03*
X2070480D02*
D03*
X2065480D02*
D03*
X2060480D02*
D03*
X2055480D02*
D03*
X2050480D02*
D03*
X2045480D02*
D03*
X2040480D02*
D03*
X2035480D02*
D03*
D56*
X2131781Y1249740D02*
D03*
Y1244740D02*
D03*
Y1239740D02*
D03*
Y1234740D02*
D03*
Y1229740D02*
D03*
Y1224740D02*
D03*
Y1219740D02*
D03*
Y1214740D02*
D03*
Y1209740D02*
D03*
Y1204740D02*
D03*
Y1199740D02*
D03*
Y1194740D02*
D03*
Y1189740D02*
D03*
Y1184740D02*
D03*
Y1179740D02*
D03*
Y1174740D02*
D03*
X2014179D02*
D03*
Y1179740D02*
D03*
Y1184740D02*
D03*
Y1189740D02*
D03*
Y1194740D02*
D03*
Y1199740D02*
D03*
Y1204740D02*
D03*
Y1209740D02*
D03*
Y1214740D02*
D03*
Y1219740D02*
D03*
Y1224740D02*
D03*
Y1229740D02*
D03*
Y1234740D02*
D03*
Y1239740D02*
D03*
Y1244740D02*
D03*
Y1249740D02*
D03*
D57*
X3836902Y520750D02*
D03*
Y514250D02*
D03*
Y507750D02*
D03*
Y501250D02*
D03*
Y494750D02*
D03*
Y488250D02*
D03*
Y481750D02*
D03*
Y475250D02*
D03*
Y468750D02*
D03*
Y462250D02*
D03*
Y455750D02*
D03*
Y449250D02*
D03*
X3779498D02*
D03*
Y455750D02*
D03*
Y462250D02*
D03*
Y468750D02*
D03*
Y475250D02*
D03*
Y481750D02*
D03*
Y488250D02*
D03*
Y494750D02*
D03*
Y501250D02*
D03*
Y507750D02*
D03*
Y514250D02*
D03*
Y520750D02*
D03*
X3299498D02*
D03*
Y514250D02*
D03*
Y507750D02*
D03*
Y501250D02*
D03*
Y494750D02*
D03*
Y488250D02*
D03*
Y481750D02*
D03*
Y475250D02*
D03*
Y468750D02*
D03*
Y462250D02*
D03*
Y455750D02*
D03*
Y449250D02*
D03*
X3356902D02*
D03*
Y455750D02*
D03*
Y462250D02*
D03*
Y468750D02*
D03*
Y475250D02*
D03*
Y481750D02*
D03*
Y488250D02*
D03*
Y494750D02*
D03*
Y501250D02*
D03*
Y507750D02*
D03*
Y514250D02*
D03*
Y520750D02*
D03*
X2876902D02*
D03*
Y514250D02*
D03*
Y507750D02*
D03*
Y501250D02*
D03*
Y494750D02*
D03*
Y488250D02*
D03*
Y481750D02*
D03*
Y475250D02*
D03*
Y468750D02*
D03*
Y462250D02*
D03*
Y455750D02*
D03*
Y449250D02*
D03*
X2819498D02*
D03*
Y455750D02*
D03*
Y462250D02*
D03*
Y468750D02*
D03*
Y475250D02*
D03*
Y481750D02*
D03*
Y488250D02*
D03*
Y494750D02*
D03*
Y501250D02*
D03*
Y507750D02*
D03*
Y514250D02*
D03*
Y520750D02*
D03*
X2339498D02*
D03*
Y514250D02*
D03*
Y507750D02*
D03*
Y501250D02*
D03*
Y494750D02*
D03*
Y488250D02*
D03*
Y481750D02*
D03*
Y475250D02*
D03*
Y468750D02*
D03*
Y462250D02*
D03*
Y455750D02*
D03*
Y449250D02*
D03*
X2396902D02*
D03*
Y455750D02*
D03*
Y462250D02*
D03*
Y468750D02*
D03*
Y475250D02*
D03*
Y481750D02*
D03*
Y488250D02*
D03*
Y494750D02*
D03*
Y501250D02*
D03*
Y507750D02*
D03*
Y514250D02*
D03*
Y520750D02*
D03*
X1916902D02*
D03*
Y514250D02*
D03*
Y507750D02*
D03*
Y501250D02*
D03*
Y494750D02*
D03*
Y488250D02*
D03*
Y481750D02*
D03*
Y475250D02*
D03*
Y468750D02*
D03*
Y462250D02*
D03*
Y455750D02*
D03*
Y449250D02*
D03*
X1859498D02*
D03*
Y455750D02*
D03*
Y462250D02*
D03*
Y468750D02*
D03*
Y475250D02*
D03*
Y481750D02*
D03*
Y488250D02*
D03*
Y494750D02*
D03*
Y501250D02*
D03*
Y507750D02*
D03*
Y514250D02*
D03*
Y520750D02*
D03*
X1379498D02*
D03*
Y514250D02*
D03*
Y507750D02*
D03*
Y501250D02*
D03*
Y494750D02*
D03*
Y488250D02*
D03*
Y481750D02*
D03*
Y475250D02*
D03*
Y468750D02*
D03*
Y462250D02*
D03*
Y455750D02*
D03*
Y449250D02*
D03*
X1436902D02*
D03*
Y455750D02*
D03*
Y462250D02*
D03*
Y468750D02*
D03*
Y475250D02*
D03*
Y481750D02*
D03*
Y488250D02*
D03*
Y494750D02*
D03*
Y501250D02*
D03*
Y507750D02*
D03*
Y514250D02*
D03*
Y520750D02*
D03*
X956902D02*
D03*
Y514250D02*
D03*
Y507750D02*
D03*
Y501250D02*
D03*
Y494750D02*
D03*
Y488250D02*
D03*
Y481750D02*
D03*
Y475250D02*
D03*
Y468750D02*
D03*
Y462250D02*
D03*
Y455750D02*
D03*
Y449250D02*
D03*
X899498D02*
D03*
Y455750D02*
D03*
Y462250D02*
D03*
Y468750D02*
D03*
Y475250D02*
D03*
Y481750D02*
D03*
Y488250D02*
D03*
Y494750D02*
D03*
Y501250D02*
D03*
Y507750D02*
D03*
Y514250D02*
D03*
Y520750D02*
D03*
X419498D02*
D03*
Y514250D02*
D03*
Y507750D02*
D03*
Y501250D02*
D03*
Y494750D02*
D03*
Y488250D02*
D03*
Y481750D02*
D03*
Y475250D02*
D03*
Y468750D02*
D03*
Y462250D02*
D03*
Y455750D02*
D03*
Y449250D02*
D03*
X476902D02*
D03*
Y455750D02*
D03*
Y462250D02*
D03*
Y468750D02*
D03*
Y475250D02*
D03*
Y481750D02*
D03*
Y488250D02*
D03*
Y494750D02*
D03*
Y501250D02*
D03*
Y507750D02*
D03*
Y514250D02*
D03*
Y520750D02*
D03*
D58*
X1932790Y2400022D02*
D03*
Y2438022D02*
D03*
D59*
X2902630Y2384595D02*
D03*
X2909130D02*
D03*
X2915630D02*
D03*
Y2405423D02*
D03*
X2909130D02*
D03*
X2902630D02*
D03*
D60*
X2909130Y2395009D02*
D03*
D61*
X2215530Y1066460D02*
D03*
Y1117260D02*
D03*
X2173530D02*
D03*
Y1066460D02*
D03*
D62*
X1662540Y1379780D02*
D03*
X1657540D02*
D03*
X1652540D02*
D03*
X1647540D02*
D03*
X1642540D02*
D03*
X1637540D02*
D03*
X1632540D02*
D03*
X1627540D02*
D03*
X1622540D02*
D03*
X1617540D02*
D03*
X1612540D02*
D03*
X1607540D02*
D03*
X1602540D02*
D03*
X1597540D02*
D03*
X1592540D02*
D03*
X1587540D02*
D03*
X1582540D02*
D03*
X1577540D02*
D03*
X1572540D02*
D03*
X1567540D02*
D03*
X1562540D02*
D03*
X1557540D02*
D03*
X1552540D02*
D03*
X1547540D02*
D03*
X1542540D02*
D03*
X1537540D02*
D03*
X1532540D02*
D03*
X1527540D02*
D03*
X1522540D02*
D03*
X1517540D02*
D03*
X1512540D02*
D03*
X1507540D02*
D03*
X1502540D02*
D03*
X1497540D02*
D03*
X1492540D02*
D03*
X1487540D02*
D03*
X1482540D02*
D03*
X1477540D02*
D03*
X1472540D02*
D03*
X1467540D02*
D03*
X1462540D02*
D03*
X1457540D02*
D03*
X1452540D02*
D03*
Y1493780D02*
D03*
X1457540D02*
D03*
X1462540D02*
D03*
X1467540D02*
D03*
X1472540D02*
D03*
X1477540D02*
D03*
X1482540D02*
D03*
X1487540D02*
D03*
X1492540D02*
D03*
X1497540D02*
D03*
X1502540D02*
D03*
X1507540D02*
D03*
X1512540D02*
D03*
X1517540D02*
D03*
X1522540D02*
D03*
X1527540D02*
D03*
X1532540D02*
D03*
X1537540D02*
D03*
X1542540D02*
D03*
X1547540D02*
D03*
X1552540D02*
D03*
X1557540D02*
D03*
X1562540D02*
D03*
X1567540D02*
D03*
X1572540D02*
D03*
X1577540D02*
D03*
X1582540D02*
D03*
X1587540D02*
D03*
X1592540D02*
D03*
X1597540D02*
D03*
X1602540D02*
D03*
X1607540D02*
D03*
X1612540D02*
D03*
X1617540D02*
D03*
X1622540D02*
D03*
X1627540D02*
D03*
X1632540D02*
D03*
X1637540D02*
D03*
X1642540D02*
D03*
X1647540D02*
D03*
X1652540D02*
D03*
X1657540D02*
D03*
X1662540D02*
D03*
D63*
X2160200Y2156200D02*
D03*
Y2137200D02*
D03*
X2132200D02*
D03*
Y2146700D02*
D03*
Y2156200D02*
D03*
X2160200Y2146700D02*
D03*
Y1922520D02*
D03*
Y1903520D02*
D03*
X2132200D02*
D03*
Y1913020D02*
D03*
Y1922520D02*
D03*
X2160200Y1913020D02*
D03*
Y2001260D02*
D03*
Y1982260D02*
D03*
X2132200D02*
D03*
Y1991760D02*
D03*
Y2001260D02*
D03*
X2160200Y1991760D02*
D03*
Y2080000D02*
D03*
Y2061000D02*
D03*
X2132200D02*
D03*
Y2070500D02*
D03*
Y2080000D02*
D03*
X2160200Y2070500D02*
D03*
D64*
X624200Y2674660D02*
D03*
Y2687360D02*
D03*
Y2700060D02*
D03*
Y2712760D02*
D03*
X570200Y2674660D02*
D03*
Y2687360D02*
D03*
Y2700060D02*
D03*
Y2712760D02*
D03*
X678250Y2777140D02*
D03*
Y2789840D02*
D03*
Y2802540D02*
D03*
Y2815240D02*
D03*
Y2827940D02*
D03*
Y2840640D02*
D03*
Y2853340D02*
D03*
X624250Y2777140D02*
D03*
Y2789840D02*
D03*
Y2802540D02*
D03*
Y2815240D02*
D03*
Y2827940D02*
D03*
Y2840640D02*
D03*
Y2853340D02*
D03*
D65*
X315200Y743000D02*
D03*
Y763000D02*
D03*
X3072200Y2495000D02*
D03*
Y2475000D02*
D03*
X3649200Y421000D02*
D03*
Y401000D02*
D03*
X3170200Y503000D02*
D03*
Y483000D02*
D03*
Y461000D02*
D03*
Y441000D02*
D03*
X3169200Y421000D02*
D03*
Y401000D02*
D03*
X3393200Y428000D02*
D03*
Y408000D02*
D03*
X1250200Y503000D02*
D03*
Y483000D02*
D03*
Y461000D02*
D03*
Y441000D02*
D03*
X1249200Y421000D02*
D03*
Y401000D02*
D03*
X1473200Y428000D02*
D03*
Y408000D02*
D03*
X2690200Y503000D02*
D03*
Y483000D02*
D03*
Y461000D02*
D03*
Y441000D02*
D03*
X2689200Y421000D02*
D03*
Y401000D02*
D03*
X2913200Y428000D02*
D03*
Y408000D02*
D03*
X1730200Y503000D02*
D03*
Y483000D02*
D03*
Y461000D02*
D03*
Y441000D02*
D03*
X1729200Y421000D02*
D03*
Y401000D02*
D03*
X1953200Y428000D02*
D03*
Y408000D02*
D03*
X2210200Y503000D02*
D03*
Y483000D02*
D03*
Y461000D02*
D03*
Y441000D02*
D03*
X2209200Y421000D02*
D03*
Y401000D02*
D03*
X2433200Y428000D02*
D03*
Y408000D02*
D03*
X770200Y503000D02*
D03*
Y483000D02*
D03*
Y461000D02*
D03*
Y441000D02*
D03*
X769200Y421000D02*
D03*
Y401000D02*
D03*
X993200Y428000D02*
D03*
Y408000D02*
D03*
X3650200Y503000D02*
D03*
Y483000D02*
D03*
Y461000D02*
D03*
Y441000D02*
D03*
X3873200Y428000D02*
D03*
Y408000D02*
D03*
X290200Y483000D02*
D03*
Y503000D02*
D03*
X289200Y401000D02*
D03*
Y421000D02*
D03*
X290200Y441000D02*
D03*
Y461000D02*
D03*
X513200Y428000D02*
D03*
Y408000D02*
D03*
X3915200Y743000D02*
D03*
Y763000D02*
D03*
X3675200Y743000D02*
D03*
Y763000D02*
D03*
X3435200Y743000D02*
D03*
Y763000D02*
D03*
X3195200Y743000D02*
D03*
Y763000D02*
D03*
X2955200Y743000D02*
D03*
Y763000D02*
D03*
X2715200Y743000D02*
D03*
Y763000D02*
D03*
X2475200Y743000D02*
D03*
Y763000D02*
D03*
X2235200Y743000D02*
D03*
Y763000D02*
D03*
X1995200Y743000D02*
D03*
Y763000D02*
D03*
X1755200Y743000D02*
D03*
Y763000D02*
D03*
X1515200Y743000D02*
D03*
Y763000D02*
D03*
X1275200Y743000D02*
D03*
Y763000D02*
D03*
X1035200Y743000D02*
D03*
Y763000D02*
D03*
X795200Y743000D02*
D03*
Y763000D02*
D03*
X555200Y743000D02*
D03*
Y763000D02*
D03*
X1107200Y2701000D02*
D03*
Y2721000D02*
D03*
X1135200Y2680000D02*
D03*
Y2700000D02*
D03*
X1675450Y2734202D02*
D03*
Y2714202D02*
D03*
X661230Y2681380D02*
D03*
Y2701380D02*
D03*
X2375200Y2358000D02*
D03*
Y2378000D02*
D03*
X2854200Y2217000D02*
D03*
Y2237000D02*
D03*
X3121200Y2222000D02*
D03*
Y2242000D02*
D03*
X2333200Y1956000D02*
D03*
Y1976000D02*
D03*
X2707200Y2043000D02*
D03*
Y2063000D02*
D03*
X2338200Y2107000D02*
D03*
Y2127000D02*
D03*
D66*
X1278510Y2705310D02*
D03*
X1291210D02*
D03*
X1303910D02*
D03*
X1316610D02*
D03*
X1329310D02*
D03*
X1342010D02*
D03*
X1354710D02*
D03*
X1367410D02*
D03*
X1380110D02*
D03*
X1392810D02*
D03*
Y2602310D02*
D03*
X1380110D02*
D03*
X1367410D02*
D03*
X1354710D02*
D03*
X1342010D02*
D03*
X1329310D02*
D03*
X1316610D02*
D03*
X1303910D02*
D03*
X1291210D02*
D03*
X1278510D02*
D03*
D67*
X1918310Y2481362D02*
D03*
Y2463362D02*
D03*
D68*
X1799700Y2043470D02*
D03*
Y2015530D02*
D03*
D69*
X2427160Y2022650D02*
D03*
D70*
X2436910Y2000650D02*
D03*
X2430410D02*
D03*
X2423910D02*
D03*
X2417410D02*
D03*
Y2044650D02*
D03*
X2423910D02*
D03*
X2430410D02*
D03*
X2436910D02*
D03*
D71*
X2488950Y2009500D02*
D03*
Y2016000D02*
D03*
Y2022500D02*
D03*
Y2029000D02*
D03*
X2532950D02*
D03*
Y2022500D02*
D03*
Y2016000D02*
D03*
Y2009500D02*
D03*
D72*
X3102120Y2071537D02*
D03*
X3089420D02*
D03*
X3076720D02*
D03*
X3064020D02*
D03*
X3051320D02*
D03*
X3038620D02*
D03*
X3025920D02*
D03*
X2891340D02*
D03*
X2878640D02*
D03*
X2865940D02*
D03*
X2853240D02*
D03*
X2840540D02*
D03*
X2827840D02*
D03*
X2815140D02*
D03*
D73*
X3064020Y1995237D02*
D03*
X2853240D02*
D03*
D74*
X2678090Y2636042D02*
D03*
Y2750342D02*
D03*
X2373690Y2687942D02*
D03*
Y2657942D02*
D03*
Y2627942D02*
D03*
Y2597942D02*
D03*
Y2750342D02*
D03*
D75*
X2242500Y864700D02*
D03*
X322500D02*
D03*
X3922500D02*
D03*
X3682500D02*
D03*
X3442500D02*
D03*
X3202500D02*
D03*
X2962500D02*
D03*
X2722500D02*
D03*
X2482500D02*
D03*
X2002500D02*
D03*
X1762500D02*
D03*
X1522500D02*
D03*
X1282500D02*
D03*
X1042500D02*
D03*
X802500D02*
D03*
X562500D02*
D03*
D76*
X2265500Y804700D02*
D03*
X2242500D02*
D03*
X2219500D02*
D03*
X345500D02*
D03*
X322500D02*
D03*
X299500D02*
D03*
X3899500D02*
D03*
X3922500D02*
D03*
X3945500D02*
D03*
X3659500D02*
D03*
X3682500D02*
D03*
X3705500D02*
D03*
X3419500D02*
D03*
X3442500D02*
D03*
X3465500D02*
D03*
X3179500D02*
D03*
X3202500D02*
D03*
X3225500D02*
D03*
X2939500D02*
D03*
X2962500D02*
D03*
X2985500D02*
D03*
X2699500D02*
D03*
X2722500D02*
D03*
X2745500D02*
D03*
X2459500D02*
D03*
X2482500D02*
D03*
X2505500D02*
D03*
X1979500D02*
D03*
X2002500D02*
D03*
X2025500D02*
D03*
X1739500D02*
D03*
X1762500D02*
D03*
X1785500D02*
D03*
X1499500D02*
D03*
X1522500D02*
D03*
X1545500D02*
D03*
X1259500D02*
D03*
X1282500D02*
D03*
X1305500D02*
D03*
X1019500D02*
D03*
X1042500D02*
D03*
X1065500D02*
D03*
X779500D02*
D03*
X802500D02*
D03*
X825500D02*
D03*
X539500D02*
D03*
X562500D02*
D03*
X585500D02*
D03*
D77*
X1345550Y1980500D02*
D03*
X1396350D02*
D03*
Y2022500D02*
D03*
X1345550D02*
D03*
D78*
X2090396Y2852092D02*
D03*
X1928344D02*
D03*
D79*
X1983970Y2843202D02*
D03*
X2004290D02*
D03*
X2024610D02*
D03*
X2044930D02*
D03*
X2034770Y2860982D02*
D03*
X2014450D02*
D03*
X1994130D02*
D03*
X1973810D02*
D03*
D80*
X2072870Y2886382D02*
D03*
X1945870D02*
D03*
D81*
X1061890Y2878780D02*
D03*
X1017890D02*
D03*
X1581200Y2873000D02*
D03*
X1625200D02*
D03*
D82*
X1306050Y2863262D02*
D03*
X1333450D02*
D03*
X1388250D02*
D03*
X1401950Y2834814D02*
D03*
X1374550D02*
D03*
X1347150D02*
D03*
X1319750D02*
D03*
X1292350D02*
D03*
X1360850Y2863262D02*
D03*
X556800Y2767960D02*
D03*
X1080570Y2609110D02*
D03*
X1055170D02*
D03*
X1029770D02*
D03*
D83*
X1222200Y2849038D02*
D03*
X1472100D02*
D03*
X567370Y233860D02*
D03*
X317470D02*
D03*
X3927370D02*
D03*
X3677470D02*
D03*
X3447370D02*
D03*
X3197470D02*
D03*
X2967370D02*
D03*
X2717470D02*
D03*
X2487370D02*
D03*
X2237470D02*
D03*
X2007370D02*
D03*
X1757470D02*
D03*
X1527370D02*
D03*
X1277470D02*
D03*
X1047370D02*
D03*
X797470D02*
D03*
D84*
X474700Y2862660D02*
D03*
X509700D02*
D03*
X544700D02*
D03*
D85*
X3142200Y2694000D02*
D03*
Y2729000D02*
D03*
Y2764000D02*
D03*
D86*
Y2799000D02*
D03*
D87*
X2623200Y197000D02*
D03*
X173200Y2857000D02*
D03*
X1623200Y197000D02*
D03*
X1773200Y2857000D02*
D03*
X4083200Y197000D02*
D03*
X173200D02*
D03*
X4083200Y1007000D02*
D03*
X2773200Y1377000D02*
D03*
X1323200D02*
D03*
X173200D02*
D03*
X3103200Y2857000D02*
D03*
D88*
X2795200Y2519000D02*
D03*
Y2709000D02*
D03*
Y2773000D02*
D03*
X2871400Y2741000D02*
D03*
D89*
Y2519000D02*
D03*
D90*
X556800Y2793360D02*
D03*
X480600Y2767960D02*
D03*
D91*
Y2793360D02*
D03*
D92*
X1105970Y2609110D02*
D03*
D93*
X3122120Y2276000D02*
D03*
X2997200Y1899000D02*
D03*
X2855200Y2276000D02*
D03*
X318200Y900200D02*
D03*
X558200D02*
D03*
X798200D02*
D03*
X1038200D02*
D03*
X1278200D02*
D03*
X1518200D02*
D03*
X1758200D02*
D03*
X1998200D02*
D03*
X2238200D02*
D03*
X2478200D02*
D03*
X2718200D02*
D03*
X2958200D02*
D03*
X3198200D02*
D03*
X3438200D02*
D03*
X3678200D02*
D03*
X3918200D02*
D03*
X2929200Y2708000D02*
D03*
X2790200Y1898000D02*
D03*
D94*
X3022120Y2276000D02*
D03*
X483520Y221160D02*
D03*
X456120D02*
D03*
X401320D02*
D03*
X387620Y246560D02*
D03*
X415020D02*
D03*
X442420D02*
D03*
X469820D02*
D03*
X497220D02*
D03*
X428720Y221160D02*
D03*
X3097200Y1899000D02*
D03*
X1492200Y2191000D02*
D03*
X1517600D02*
D03*
X1543000D02*
D03*
X1339800D02*
D03*
X1365200D02*
D03*
X1390600D02*
D03*
X1568400D02*
D03*
X1593800D02*
D03*
X1619200D02*
D03*
X1416000D02*
D03*
X1441400D02*
D03*
X1466800D02*
D03*
X1978920Y2181000D02*
D03*
Y2155600D02*
D03*
Y2130200D02*
D03*
Y2104800D02*
D03*
Y2079400D02*
D03*
Y2054000D02*
D03*
Y2028600D02*
D03*
Y2003200D02*
D03*
Y1977800D02*
D03*
X744100Y2737660D02*
D03*
X718700D02*
D03*
X693300D02*
D03*
X631050Y2899410D02*
D03*
X656450D02*
D03*
X681850D02*
D03*
X792200Y2816110D02*
D03*
Y2841510D02*
D03*
Y2866910D02*
D03*
X3843520Y221160D02*
D03*
X3816120D02*
D03*
X3761320D02*
D03*
X3747620Y246560D02*
D03*
X3775020D02*
D03*
X3802420D02*
D03*
X3829820D02*
D03*
X3857220D02*
D03*
X3788720Y221160D02*
D03*
X3363520D02*
D03*
X3336120D02*
D03*
X3281320D02*
D03*
X3267620Y246560D02*
D03*
X3295020D02*
D03*
X3322420D02*
D03*
X3349820D02*
D03*
X3377220D02*
D03*
X3308720Y221160D02*
D03*
X2883520D02*
D03*
X2856120D02*
D03*
X2801320D02*
D03*
X2787620Y246560D02*
D03*
X2815020D02*
D03*
X2842420D02*
D03*
X2869820D02*
D03*
X2897220D02*
D03*
X2828720Y221160D02*
D03*
X2403520D02*
D03*
X2376120D02*
D03*
X2321320D02*
D03*
X2307620Y246560D02*
D03*
X2335020D02*
D03*
X2362420D02*
D03*
X2389820D02*
D03*
X2417220D02*
D03*
X2348720Y221160D02*
D03*
X1923520D02*
D03*
X1896120D02*
D03*
X1841320D02*
D03*
X1827620Y246560D02*
D03*
X1855020D02*
D03*
X1882420D02*
D03*
X1909820D02*
D03*
X1937220D02*
D03*
X1868720Y221160D02*
D03*
X1443520D02*
D03*
X1416120D02*
D03*
X1361320D02*
D03*
X1347620Y246560D02*
D03*
X1375020D02*
D03*
X1402420D02*
D03*
X1429820D02*
D03*
X1457220D02*
D03*
X1388720Y221160D02*
D03*
X963520D02*
D03*
X936120D02*
D03*
X881320D02*
D03*
X867620Y246560D02*
D03*
X895020D02*
D03*
X922420D02*
D03*
X949820D02*
D03*
X977220D02*
D03*
X908720Y221160D02*
D03*
X3610200Y492500D02*
D03*
X3677200Y392500D02*
D03*
X3978200D02*
D03*
X3130200Y492500D02*
D03*
X3197200Y392500D02*
D03*
X3498200D02*
D03*
X2650200Y492500D02*
D03*
X2717200Y392500D02*
D03*
X3018200D02*
D03*
X2170200Y492500D02*
D03*
X2237200Y392500D02*
D03*
X2538200D02*
D03*
X1690200Y492500D02*
D03*
X1757200Y392500D02*
D03*
X2058200D02*
D03*
X1210200Y492500D02*
D03*
X1277200Y392500D02*
D03*
X1578200D02*
D03*
X730200Y492500D02*
D03*
X797200Y392500D02*
D03*
X1098200D02*
D03*
X250200Y492500D02*
D03*
X317200Y392500D02*
D03*
X618200D02*
D03*
X1748450Y2626262D02*
D03*
X2375130Y2510500D02*
D03*
X2459950Y2306500D02*
D03*
X2649070Y2362578D02*
D03*
X2378190Y1876070D02*
D03*
X3018200Y2388000D02*
D03*
X2706280Y1903318D02*
D03*
X2955200Y2276000D02*
D03*
X2375490Y2126870D02*
D03*
X218200Y900200D02*
D03*
X458200D02*
D03*
X698200D02*
D03*
X938200D02*
D03*
X1178200D02*
D03*
X1418200D02*
D03*
X1658200D02*
D03*
X1898200D02*
D03*
X2138200D02*
D03*
X2378200D02*
D03*
X2618200D02*
D03*
X2858200D02*
D03*
X3098200D02*
D03*
X3338200D02*
D03*
X3578200D02*
D03*
X3818200D02*
D03*
X3029200Y2708000D02*
D03*
X2890200Y1898000D02*
D03*
D95*
X4002900Y907200D02*
D03*
X3977500D02*
D03*
X1277660Y1838500D02*
D03*
X1303060D02*
D03*
X1277660Y1879547D02*
D03*
X1303060D02*
D03*
X1277660Y1920593D02*
D03*
X1303060D02*
D03*
X1277660Y1961640D02*
D03*
X1303060D02*
D03*
X3579682Y248356D02*
D03*
Y273756D02*
D03*
X3605082D02*
D03*
Y248356D02*
D03*
X3099682D02*
D03*
Y273756D02*
D03*
X3125082D02*
D03*
Y248356D02*
D03*
X2619682D02*
D03*
Y273756D02*
D03*
X2645082D02*
D03*
Y248356D02*
D03*
X2139682D02*
D03*
Y273756D02*
D03*
X2165082D02*
D03*
Y248356D02*
D03*
X1659682D02*
D03*
Y273756D02*
D03*
X1685082D02*
D03*
Y248356D02*
D03*
X1179682D02*
D03*
Y273756D02*
D03*
X1205082D02*
D03*
Y248356D02*
D03*
X699682D02*
D03*
Y273756D02*
D03*
X725082D02*
D03*
Y248356D02*
D03*
X219682D02*
D03*
Y273756D02*
D03*
X245082D02*
D03*
Y248356D02*
D03*
X402900Y967200D02*
D03*
X377500D02*
D03*
X402900Y937200D02*
D03*
X377500D02*
D03*
X642900Y967200D02*
D03*
X617500D02*
D03*
X642900Y907200D02*
D03*
X617500D02*
D03*
X642900Y937200D02*
D03*
X617500D02*
D03*
X882900Y967200D02*
D03*
X857500D02*
D03*
X882900Y907200D02*
D03*
X857500D02*
D03*
X882900Y937200D02*
D03*
X857500D02*
D03*
X1122900Y967200D02*
D03*
X1097500D02*
D03*
X1122900Y907200D02*
D03*
X1097500D02*
D03*
X1122900Y937200D02*
D03*
X1097500D02*
D03*
X1362900Y967200D02*
D03*
X1337500D02*
D03*
X1362900Y907200D02*
D03*
X1337500D02*
D03*
X1362900Y937200D02*
D03*
X1337500D02*
D03*
X1602900Y967200D02*
D03*
X1577500D02*
D03*
X1602900Y907200D02*
D03*
X1577500D02*
D03*
X1602900Y937200D02*
D03*
X1577500D02*
D03*
X1842900Y967200D02*
D03*
X1817500D02*
D03*
X1842900Y907200D02*
D03*
X1817500D02*
D03*
X1842900Y937200D02*
D03*
X1817500D02*
D03*
X2082900Y967200D02*
D03*
X2057500D02*
D03*
X2082900Y907200D02*
D03*
X2057500D02*
D03*
X2082900Y937200D02*
D03*
X2057500D02*
D03*
X2322900Y967200D02*
D03*
X2297500D02*
D03*
X2322900Y907200D02*
D03*
X2297500D02*
D03*
X2322900Y937200D02*
D03*
X2297500D02*
D03*
X2562900Y967200D02*
D03*
X2537500D02*
D03*
X2562900Y907200D02*
D03*
X2537500D02*
D03*
X2562900Y937200D02*
D03*
X2537500D02*
D03*
X2802900Y967200D02*
D03*
X2777500D02*
D03*
X2802900Y907200D02*
D03*
X2777500D02*
D03*
X2802900Y937200D02*
D03*
X2777500D02*
D03*
X3042900Y967200D02*
D03*
X3017500D02*
D03*
X3042900Y907200D02*
D03*
X3017500D02*
D03*
X3042900Y937200D02*
D03*
X3017500D02*
D03*
X3282900Y967200D02*
D03*
X3257500D02*
D03*
X3282900Y907200D02*
D03*
X3257500D02*
D03*
X3282900Y937200D02*
D03*
X3257500D02*
D03*
X3522900Y967200D02*
D03*
X3497500D02*
D03*
X3522900Y907200D02*
D03*
X3497500D02*
D03*
X3522900Y937200D02*
D03*
X3497500D02*
D03*
X3762900Y967200D02*
D03*
X3737500D02*
D03*
X3762900Y907200D02*
D03*
X3737500D02*
D03*
X3762900Y937200D02*
D03*
X3737500D02*
D03*
X4002900Y967200D02*
D03*
X3977500D02*
D03*
X4002900Y937200D02*
D03*
X3977500D02*
D03*
X3003800Y2799000D02*
D03*
X3029200D02*
D03*
X402900Y907200D02*
D03*
X377500D02*
D03*
D96*
X3610200Y392500D02*
D03*
X3677200Y292500D02*
D03*
X3978200D02*
D03*
X3130200Y392500D02*
D03*
X3197200Y292500D02*
D03*
X3498200D02*
D03*
X2650200Y392500D02*
D03*
X2717200Y292500D02*
D03*
X3018200D02*
D03*
X2170200Y392500D02*
D03*
X2237200Y292500D02*
D03*
X2538200D02*
D03*
X1690200Y392500D02*
D03*
X1757200Y292500D02*
D03*
X2058200D02*
D03*
X1210200Y392500D02*
D03*
X1277200Y292500D02*
D03*
X1578200D02*
D03*
X730200Y392500D02*
D03*
X797200Y292500D02*
D03*
X1098200D02*
D03*
X250200Y392500D02*
D03*
X317200Y292500D02*
D03*
X618200D02*
D03*
X1748450Y2726262D02*
D03*
X2375130Y2410500D02*
D03*
X2459950Y2206500D02*
D03*
X2649070Y2262578D02*
D03*
X2378190Y1976070D02*
D03*
X3018200Y2488000D02*
D03*
X2706280Y2003318D02*
D03*
X2375490Y2026870D02*
D03*
D97*
X2350700Y1467000D02*
D03*
X2735700Y922200D02*
D03*
X2090762Y2799438D02*
D03*
X2050700Y2811750D02*
D03*
X1952050Y2760150D02*
D03*
X2033450Y2825500D02*
D03*
X2028250Y2765500D02*
D03*
X2002850Y2766400D02*
D03*
X1979450Y2798841D02*
D03*
X1942700Y2782750D02*
D03*
D98*
X2025890Y2455240D02*
D03*
X2037890D02*
D03*
M02*
