G04*
G04 #@! TF.GenerationSoftware,Altium Limited,Altium Designer,18.0.12 (696)*
G04*
G04 Layer_Color=16711935*
%FSLAX44Y44*%
%MOMM*%
G71*
G01*
G75*
%ADD24R,1.2032X1.1032*%
%ADD26R,1.3208X1.3208*%
%ADD31R,1.1532X1.6532*%
%ADD32R,1.1032X1.2032*%
%ADD63R,1.6532X1.1532*%
%ADD66R,1.7272X1.4732*%
%ADD76C,3.2000*%
%ADD77C,2.5032*%
%ADD78C,1.8032*%
%ADD79C,0.9000*%
%ADD80C,1.7032*%
%ADD81C,5.7032*%
%ADD82O,2.1336X4.0640*%
%ADD83C,2.0032*%
%ADD84R,2.0032X2.0032*%
%ADD85C,5.6032*%
%ADD86C,2.1532*%
%ADD87R,2.1532X2.1532*%
%ADD88C,1.7032*%
%ADD89R,1.7032X1.7032*%
%ADD90R,1.7032X1.7032*%
%ADD91R,1.8032X1.8032*%
%ADD92C,1.9032*%
%ADD93R,1.8032X1.8032*%
%ADD94C,0.8632*%
%ADD166R,0.9906X1.2446*%
%ADD167R,2.1082X1.2446*%
D24*
X3841400Y898700D02*
D03*
Y882700D02*
D03*
X3601400D02*
D03*
Y898700D02*
D03*
X3361400Y882700D02*
D03*
Y898700D02*
D03*
X3121400D02*
D03*
Y882700D02*
D03*
X2881400Y898700D02*
D03*
Y882700D02*
D03*
X2641400D02*
D03*
Y898700D02*
D03*
X2401400Y882700D02*
D03*
Y898700D02*
D03*
X2161400D02*
D03*
Y882700D02*
D03*
X1921400Y898700D02*
D03*
Y882700D02*
D03*
X1681400D02*
D03*
Y898700D02*
D03*
X1441400Y882700D02*
D03*
Y898700D02*
D03*
X1201400D02*
D03*
Y882700D02*
D03*
X961400Y898700D02*
D03*
Y882700D02*
D03*
X721400D02*
D03*
Y898700D02*
D03*
X481400Y882700D02*
D03*
Y898700D02*
D03*
X241400D02*
D03*
Y882700D02*
D03*
X515200Y303000D02*
D03*
Y319000D02*
D03*
X995200D02*
D03*
Y303000D02*
D03*
X1475200D02*
D03*
Y319000D02*
D03*
X1955200D02*
D03*
Y303000D02*
D03*
X2435200D02*
D03*
Y319000D02*
D03*
X2915200D02*
D03*
Y303000D02*
D03*
X3395200D02*
D03*
Y319000D02*
D03*
X3875200D02*
D03*
Y303000D02*
D03*
X3308200Y503000D02*
D03*
Y519000D02*
D03*
X3291200Y496000D02*
D03*
Y480000D02*
D03*
X3308200Y490000D02*
D03*
Y474000D02*
D03*
X1388200Y503000D02*
D03*
Y519000D02*
D03*
X1371200Y496000D02*
D03*
Y480000D02*
D03*
X1388200Y490000D02*
D03*
Y474000D02*
D03*
X2828200Y519000D02*
D03*
Y503000D02*
D03*
X2811200Y480000D02*
D03*
Y496000D02*
D03*
X2828200Y474000D02*
D03*
Y490000D02*
D03*
X1868200Y519000D02*
D03*
Y503000D02*
D03*
X1851200Y480000D02*
D03*
Y496000D02*
D03*
X1868200Y474000D02*
D03*
Y490000D02*
D03*
X2348200Y503000D02*
D03*
Y519000D02*
D03*
X2331200Y496000D02*
D03*
Y480000D02*
D03*
X2348200Y490000D02*
D03*
Y474000D02*
D03*
X908200Y519000D02*
D03*
Y503000D02*
D03*
X891200Y480000D02*
D03*
Y496000D02*
D03*
X908200Y474000D02*
D03*
Y490000D02*
D03*
X3788200Y519000D02*
D03*
Y503000D02*
D03*
X3771200Y480000D02*
D03*
Y496000D02*
D03*
X3788200Y490000D02*
D03*
Y474000D02*
D03*
X1905230Y2810562D02*
D03*
Y2794562D02*
D03*
X2145700Y2815250D02*
D03*
Y2831250D02*
D03*
X2105890Y2830882D02*
D03*
Y2814882D02*
D03*
X3834200Y366000D02*
D03*
Y350000D02*
D03*
X3777200Y366000D02*
D03*
Y350000D02*
D03*
X3354200Y350000D02*
D03*
Y366000D02*
D03*
X3297200Y350000D02*
D03*
Y366000D02*
D03*
X2874200Y366000D02*
D03*
Y350000D02*
D03*
X2817200Y366000D02*
D03*
Y350000D02*
D03*
X2394200Y350000D02*
D03*
Y366000D02*
D03*
X2337200Y350000D02*
D03*
Y366000D02*
D03*
X1914200Y366000D02*
D03*
Y350000D02*
D03*
X1857200Y366000D02*
D03*
Y350000D02*
D03*
X1434200Y350000D02*
D03*
Y366000D02*
D03*
X1377200Y350000D02*
D03*
Y366000D02*
D03*
X954200Y366000D02*
D03*
Y350000D02*
D03*
X897200Y366000D02*
D03*
Y350000D02*
D03*
X474200Y350000D02*
D03*
Y366000D02*
D03*
X417200Y350000D02*
D03*
Y366000D02*
D03*
X1605800Y1408460D02*
D03*
Y1424460D02*
D03*
X1506740Y1419380D02*
D03*
Y1403380D02*
D03*
X1479950Y1403750D02*
D03*
Y1419750D02*
D03*
X1463560Y1464720D02*
D03*
Y1448720D02*
D03*
X1491500Y1449100D02*
D03*
Y1465100D02*
D03*
X1519200Y1464500D02*
D03*
Y1448500D02*
D03*
X1593100Y1449100D02*
D03*
Y1465100D02*
D03*
X1622310Y1466060D02*
D03*
Y1450060D02*
D03*
X1651520Y1449100D02*
D03*
Y1465100D02*
D03*
X1669300D02*
D03*
Y1449100D02*
D03*
X1313450Y2013750D02*
D03*
Y1997750D02*
D03*
X1632270Y2650922D02*
D03*
Y2634922D02*
D03*
X1571310D02*
D03*
Y2650922D02*
D03*
X1721950Y2068500D02*
D03*
Y2052500D02*
D03*
X1659450D02*
D03*
Y2068500D02*
D03*
X1586200D02*
D03*
Y2052500D02*
D03*
X1492200D02*
D03*
Y2068500D02*
D03*
X2029200Y1235000D02*
D03*
Y1251000D02*
D03*
X428200Y519000D02*
D03*
Y503000D02*
D03*
X411200Y480000D02*
D03*
Y496000D02*
D03*
X428200Y474000D02*
D03*
Y490000D02*
D03*
D26*
X284360Y292902D02*
D03*
X294520Y315000D02*
D03*
X274200D02*
D03*
X754200D02*
D03*
X774520D02*
D03*
X764360Y292902D02*
D03*
X1244360D02*
D03*
X1254520Y315000D02*
D03*
X1234200D02*
D03*
X1714200D02*
D03*
X1734520D02*
D03*
X1724360Y292902D02*
D03*
X2204360D02*
D03*
X2214520Y315000D02*
D03*
X2194200D02*
D03*
X2674200D02*
D03*
X2694520D02*
D03*
X2684360Y292902D02*
D03*
X3164360D02*
D03*
X3174520Y315000D02*
D03*
X3154200D02*
D03*
X3634200D02*
D03*
X3654520D02*
D03*
X3644360Y292902D02*
D03*
X285200Y393000D02*
D03*
X275040Y370902D02*
D03*
X295360D02*
D03*
X775360D02*
D03*
X755040D02*
D03*
X765200Y393000D02*
D03*
X1245200D02*
D03*
X1235040Y370902D02*
D03*
X1255360D02*
D03*
X1735360D02*
D03*
X1715040D02*
D03*
X1725200Y393000D02*
D03*
X2205200D02*
D03*
X2195040Y370902D02*
D03*
X2215360D02*
D03*
X2695360D02*
D03*
X2675040D02*
D03*
X2685200Y393000D02*
D03*
X3165200D02*
D03*
X3155040Y370902D02*
D03*
X3175360D02*
D03*
X3655360D02*
D03*
X3635040D02*
D03*
X3645200Y393000D02*
D03*
X584360Y368902D02*
D03*
X564040D02*
D03*
X574200Y391000D02*
D03*
X385200Y348000D02*
D03*
X364880D02*
D03*
X375040Y370098D02*
D03*
X1064360Y368902D02*
D03*
X1044040D02*
D03*
X1054200Y391000D02*
D03*
X865200Y348000D02*
D03*
X844880D02*
D03*
X855040Y370098D02*
D03*
X1544360Y368902D02*
D03*
X1524040D02*
D03*
X1534200Y391000D02*
D03*
X1345200Y348000D02*
D03*
X1324880D02*
D03*
X1335040Y370098D02*
D03*
X2024360Y368902D02*
D03*
X2004040D02*
D03*
X2014200Y391000D02*
D03*
X1825200Y348000D02*
D03*
X1804880D02*
D03*
X1815040Y370098D02*
D03*
X2504360Y368902D02*
D03*
X2484040D02*
D03*
X2494200Y391000D02*
D03*
X2305200Y348000D02*
D03*
X2284880D02*
D03*
X2295040Y370098D02*
D03*
X2984360Y368902D02*
D03*
X2964040D02*
D03*
X2974200Y391000D02*
D03*
X2785200Y348000D02*
D03*
X2764880D02*
D03*
X2775040Y370098D02*
D03*
X3464360Y368902D02*
D03*
X3444040D02*
D03*
X3454200Y391000D02*
D03*
X3265200Y348000D02*
D03*
X3244880D02*
D03*
X3255040Y370098D02*
D03*
X3944360Y368902D02*
D03*
X3924040D02*
D03*
X3934200Y391000D02*
D03*
X3745200Y348000D02*
D03*
X3724880D02*
D03*
X3735040Y370098D02*
D03*
D31*
X1525200Y2735000D02*
D03*
X1505200D02*
D03*
X1698100Y1474340D02*
D03*
X1718100D02*
D03*
X2147200Y1201000D02*
D03*
X2127200D02*
D03*
X2147530Y1241680D02*
D03*
X2127530D02*
D03*
X2180880Y1156360D02*
D03*
X2160880D02*
D03*
X2187200Y1187000D02*
D03*
X2167200D02*
D03*
X2096200Y1300000D02*
D03*
X2116200D02*
D03*
X2029200Y1273000D02*
D03*
X2049200D02*
D03*
D32*
X3255200Y392000D02*
D03*
X3239200D02*
D03*
X1335200D02*
D03*
X1319200D02*
D03*
X2759200D02*
D03*
X2775200D02*
D03*
X1799200D02*
D03*
X1815200D02*
D03*
X2295200D02*
D03*
X2279200D02*
D03*
X839200D02*
D03*
X855200D02*
D03*
X3719200D02*
D03*
X3735200D02*
D03*
X375200D02*
D03*
X359200D02*
D03*
X1309370Y2884302D02*
D03*
X1293370D02*
D03*
X1653680Y1378360D02*
D03*
X1669680D02*
D03*
X1714200Y1450000D02*
D03*
X1698200D02*
D03*
X1433830Y2884302D02*
D03*
X1417830D02*
D03*
X1653410Y2643202D02*
D03*
X1669410D02*
D03*
X1750590Y1942560D02*
D03*
X1734590D02*
D03*
X1722450Y1763000D02*
D03*
X1738450D02*
D03*
X1749950Y1818250D02*
D03*
X1733950D02*
D03*
X1750700Y1878000D02*
D03*
X1734700D02*
D03*
X1734590Y2008600D02*
D03*
X1750590D02*
D03*
X1450950Y1968250D02*
D03*
X1466950D02*
D03*
X1467700Y1913000D02*
D03*
X1451700D02*
D03*
X1452200Y1851000D02*
D03*
X1468200D02*
D03*
X1467950Y1782250D02*
D03*
X1451950D02*
D03*
X1503950Y1763250D02*
D03*
X1519950D02*
D03*
X1588950Y1763000D02*
D03*
X1572950D02*
D03*
X1623200D02*
D03*
X1639200D02*
D03*
X1696200D02*
D03*
X1680200D02*
D03*
X2130200Y1223000D02*
D03*
X2146200D02*
D03*
X2096200Y1283000D02*
D03*
X2112200D02*
D03*
X2034480Y1288720D02*
D03*
X2050480D02*
D03*
X1469300Y1888880D02*
D03*
X1485300D02*
D03*
Y1868560D02*
D03*
X1469300D02*
D03*
D63*
X3841400Y835700D02*
D03*
Y855700D02*
D03*
X3601400Y835700D02*
D03*
Y855700D02*
D03*
X3361400Y835700D02*
D03*
Y855700D02*
D03*
X3121400Y835700D02*
D03*
Y855700D02*
D03*
X2881400Y835700D02*
D03*
Y855700D02*
D03*
X2641400Y835700D02*
D03*
Y855700D02*
D03*
X2401400Y835700D02*
D03*
Y855700D02*
D03*
X2161400Y835700D02*
D03*
Y855700D02*
D03*
X1921400Y835700D02*
D03*
Y855700D02*
D03*
X1681400Y835700D02*
D03*
Y855700D02*
D03*
X1441400Y835700D02*
D03*
Y855700D02*
D03*
X1201400Y835700D02*
D03*
Y855700D02*
D03*
X961400Y835700D02*
D03*
Y855700D02*
D03*
X721400Y835700D02*
D03*
Y855700D02*
D03*
X481400Y835700D02*
D03*
Y855700D02*
D03*
X241400Y835700D02*
D03*
Y855700D02*
D03*
X2011200Y1234000D02*
D03*
Y1254000D02*
D03*
D66*
X1654060Y1834290D02*
D03*
Y1806350D02*
D03*
D76*
X2072830Y2886402D02*
D03*
X1945830D02*
D03*
D77*
X2090630Y2852102D02*
D03*
X1928030D02*
D03*
D78*
X2034770Y2861002D02*
D03*
X2014450D02*
D03*
X1994130D02*
D03*
X1973810D02*
D03*
X2044930Y2843202D02*
D03*
X2024610Y2843202D02*
D03*
X2004290D02*
D03*
X1983970Y2843202D02*
D03*
X1940730Y2795002D02*
D03*
X1963630D02*
D03*
X2055030D02*
D03*
X2077930D02*
D03*
X3022120Y2276000D02*
D03*
X483520Y221160D02*
D03*
X456120D02*
D03*
X401320D02*
D03*
X387620Y246560D02*
D03*
X415020D02*
D03*
X442420D02*
D03*
X469820D02*
D03*
X497220D02*
D03*
X428720Y221160D02*
D03*
X3097200Y1899000D02*
D03*
X1492200Y2191000D02*
D03*
X1517600D02*
D03*
X1543000D02*
D03*
X1339800D02*
D03*
X1365200D02*
D03*
X1390600D02*
D03*
X1568400D02*
D03*
X1593800D02*
D03*
X1619200D02*
D03*
X1416000D02*
D03*
X1441400D02*
D03*
X1466800D02*
D03*
X1978920Y2181000D02*
D03*
Y2155600D02*
D03*
Y2130200D02*
D03*
Y2104800D02*
D03*
Y2079400D02*
D03*
Y2054000D02*
D03*
Y2028600D02*
D03*
Y2003200D02*
D03*
Y1977800D02*
D03*
X744100Y2737660D02*
D03*
X718700D02*
D03*
X693300D02*
D03*
X631050Y2899410D02*
D03*
X656450D02*
D03*
X681850D02*
D03*
X792200Y2816110D02*
D03*
Y2841510D02*
D03*
Y2866910D02*
D03*
X3843520Y221160D02*
D03*
X3816120D02*
D03*
X3761320D02*
D03*
X3747620Y246560D02*
D03*
X3775020D02*
D03*
X3802420D02*
D03*
X3829820D02*
D03*
X3857220D02*
D03*
X3788720Y221160D02*
D03*
X3363520D02*
D03*
X3336120D02*
D03*
X3281320D02*
D03*
X3267620Y246560D02*
D03*
X3295020D02*
D03*
X3322420D02*
D03*
X3349820D02*
D03*
X3377220D02*
D03*
X3308720Y221160D02*
D03*
X2883520D02*
D03*
X2856120D02*
D03*
X2801320D02*
D03*
X2787620Y246560D02*
D03*
X2815020D02*
D03*
X2842420D02*
D03*
X2869820D02*
D03*
X2897220D02*
D03*
X2828720Y221160D02*
D03*
X2403520D02*
D03*
X2376120D02*
D03*
X2321320D02*
D03*
X2307620Y246560D02*
D03*
X2335020D02*
D03*
X2362420D02*
D03*
X2389820D02*
D03*
X2417220D02*
D03*
X2348720Y221160D02*
D03*
X1923520D02*
D03*
X1896120D02*
D03*
X1841320D02*
D03*
X1827620Y246560D02*
D03*
X1855020D02*
D03*
X1882420D02*
D03*
X1909820D02*
D03*
X1937220D02*
D03*
X1868720Y221160D02*
D03*
X1443520D02*
D03*
X1416120D02*
D03*
X1361320D02*
D03*
X1347620Y246560D02*
D03*
X1375020D02*
D03*
X1402420D02*
D03*
X1429820D02*
D03*
X1457220D02*
D03*
X1388720Y221160D02*
D03*
X963520D02*
D03*
X936120D02*
D03*
X881320D02*
D03*
X867620Y246560D02*
D03*
X895020D02*
D03*
X922420D02*
D03*
X949820D02*
D03*
X977220D02*
D03*
X908720Y221160D02*
D03*
X3610200Y492500D02*
D03*
X3677200Y392500D02*
D03*
X3978200D02*
D03*
X3130200Y492500D02*
D03*
X3197200Y392500D02*
D03*
X3498200D02*
D03*
X2650200Y492500D02*
D03*
X2717200Y392500D02*
D03*
X3018200D02*
D03*
X2170200Y492500D02*
D03*
X2237200Y392500D02*
D03*
X2538200D02*
D03*
X1690200Y492500D02*
D03*
X1757200Y392500D02*
D03*
X2058200D02*
D03*
X1210200Y492500D02*
D03*
X1277200Y392500D02*
D03*
X1578200D02*
D03*
X730200Y492500D02*
D03*
X797200Y392500D02*
D03*
X1098200D02*
D03*
X250200Y492500D02*
D03*
X317200Y392500D02*
D03*
X618200D02*
D03*
X1748450Y2626262D02*
D03*
X2375130Y2510500D02*
D03*
X2459950Y2306500D02*
D03*
X2649070Y2362578D02*
D03*
X2378190Y1876070D02*
D03*
X3018200Y2388000D02*
D03*
X2706280Y1903318D02*
D03*
X2955200Y2276000D02*
D03*
X2375490Y2126870D02*
D03*
X218200Y900200D02*
D03*
X458200D02*
D03*
X698200D02*
D03*
X938200D02*
D03*
X1178200D02*
D03*
X1418200D02*
D03*
X1658200D02*
D03*
X1898200D02*
D03*
X2138200D02*
D03*
X2378200D02*
D03*
X2618200D02*
D03*
X2858200D02*
D03*
X3098200D02*
D03*
X3338200D02*
D03*
X3578200D02*
D03*
X3818200D02*
D03*
X3029200Y2708000D02*
D03*
X2890200Y1898000D02*
D03*
D79*
X1061890Y2878780D02*
D03*
X1017890D02*
D03*
X1581200Y2873000D02*
D03*
X1625200D02*
D03*
D80*
X1306050Y2863262D02*
D03*
X1333450D02*
D03*
X1388250D02*
D03*
X1401950Y2834814D02*
D03*
X1374550D02*
D03*
X1347150D02*
D03*
X1319750D02*
D03*
X1292350D02*
D03*
X1360850Y2863262D02*
D03*
X556800Y2767960D02*
D03*
X1080570Y2609110D02*
D03*
X1055170D02*
D03*
X1029770D02*
D03*
D81*
X1222200Y2849038D02*
D03*
X1472100D02*
D03*
X567370Y233860D02*
D03*
X317470D02*
D03*
X3927370D02*
D03*
X3677470D02*
D03*
X3447370D02*
D03*
X3197470D02*
D03*
X2967370D02*
D03*
X2717470D02*
D03*
X2487370D02*
D03*
X2237470D02*
D03*
X2007370D02*
D03*
X1757470D02*
D03*
X1527370D02*
D03*
X1277470D02*
D03*
X1047370D02*
D03*
X797470D02*
D03*
D82*
X474700Y2862660D02*
D03*
X509700D02*
D03*
X544700D02*
D03*
D83*
X3142200Y2694000D02*
D03*
Y2729000D02*
D03*
Y2764000D02*
D03*
D84*
Y2799000D02*
D03*
D85*
X2623200Y197000D02*
D03*
X173200Y2857000D02*
D03*
X1623200Y197000D02*
D03*
X1773200Y2857000D02*
D03*
X4103200Y197000D02*
D03*
X173200D02*
D03*
X4103200Y1377000D02*
D03*
X2773200D02*
D03*
X1323200D02*
D03*
X173200D02*
D03*
X3103200Y2857000D02*
D03*
D86*
X2795200Y2519000D02*
D03*
Y2709000D02*
D03*
Y2773000D02*
D03*
X2871400Y2741000D02*
D03*
D87*
Y2519000D02*
D03*
D88*
X556800Y2793360D02*
D03*
X480600Y2767960D02*
D03*
D89*
Y2793360D02*
D03*
D90*
X1105970Y2609110D02*
D03*
D91*
X3122120Y2276000D02*
D03*
X2997200Y1899000D02*
D03*
X2855200Y2276000D02*
D03*
X318200Y900200D02*
D03*
X558200D02*
D03*
X798200D02*
D03*
X1038200D02*
D03*
X1278200D02*
D03*
X1518200D02*
D03*
X1758200D02*
D03*
X1998200D02*
D03*
X2238200D02*
D03*
X2478200D02*
D03*
X2718200D02*
D03*
X2958200D02*
D03*
X3198200D02*
D03*
X3438200D02*
D03*
X3678200D02*
D03*
X3918200D02*
D03*
X2929200Y2708000D02*
D03*
X2790200Y1898000D02*
D03*
D92*
X4002900Y907200D02*
D03*
X3977500D02*
D03*
X1277660Y1838500D02*
D03*
X1303060D02*
D03*
X1277660Y1879547D02*
D03*
X1303060D02*
D03*
X1277660Y1920593D02*
D03*
X1303060D02*
D03*
X1277660Y1961640D02*
D03*
X1303060D02*
D03*
X3579682Y248356D02*
D03*
Y273756D02*
D03*
X3605082D02*
D03*
Y248356D02*
D03*
X3099682D02*
D03*
Y273756D02*
D03*
X3125082D02*
D03*
Y248356D02*
D03*
X2619682D02*
D03*
Y273756D02*
D03*
X2645082D02*
D03*
Y248356D02*
D03*
X2139682D02*
D03*
Y273756D02*
D03*
X2165082D02*
D03*
Y248356D02*
D03*
X1659682D02*
D03*
Y273756D02*
D03*
X1685082D02*
D03*
Y248356D02*
D03*
X1179682D02*
D03*
Y273756D02*
D03*
X1205082D02*
D03*
Y248356D02*
D03*
X699682D02*
D03*
Y273756D02*
D03*
X725082D02*
D03*
Y248356D02*
D03*
X219682D02*
D03*
Y273756D02*
D03*
X245082D02*
D03*
Y248356D02*
D03*
X402900Y967200D02*
D03*
X377500D02*
D03*
X402900Y937200D02*
D03*
X377500D02*
D03*
X642900Y967200D02*
D03*
X617500D02*
D03*
X642900Y907200D02*
D03*
X617500D02*
D03*
X642900Y937200D02*
D03*
X617500D02*
D03*
X882900Y967200D02*
D03*
X857500D02*
D03*
X882900Y907200D02*
D03*
X857500D02*
D03*
X882900Y937200D02*
D03*
X857500D02*
D03*
X1122900Y967200D02*
D03*
X1097500D02*
D03*
X1122900Y907200D02*
D03*
X1097500D02*
D03*
X1122900Y937200D02*
D03*
X1097500D02*
D03*
X1362900Y967200D02*
D03*
X1337500D02*
D03*
X1362900Y907200D02*
D03*
X1337500D02*
D03*
X1362900Y937200D02*
D03*
X1337500D02*
D03*
X1602900Y967200D02*
D03*
X1577500D02*
D03*
X1602900Y907200D02*
D03*
X1577500D02*
D03*
X1602900Y937200D02*
D03*
X1577500D02*
D03*
X1842900Y967200D02*
D03*
X1817500D02*
D03*
X1842900Y907200D02*
D03*
X1817500D02*
D03*
X1842900Y937200D02*
D03*
X1817500D02*
D03*
X2082900Y967200D02*
D03*
X2057500D02*
D03*
X2082900Y907200D02*
D03*
X2057500D02*
D03*
X2082900Y937200D02*
D03*
X2057500D02*
D03*
X2322900Y967200D02*
D03*
X2297500D02*
D03*
X2322900Y907200D02*
D03*
X2297500D02*
D03*
X2322900Y937200D02*
D03*
X2297500D02*
D03*
X2562900Y967200D02*
D03*
X2537500D02*
D03*
X2562900Y907200D02*
D03*
X2537500D02*
D03*
X2562900Y937200D02*
D03*
X2537500D02*
D03*
X2802900Y967200D02*
D03*
X2777500D02*
D03*
X2802900Y907200D02*
D03*
X2777500D02*
D03*
X2802900Y937200D02*
D03*
X2777500D02*
D03*
X3042900Y967200D02*
D03*
X3017500D02*
D03*
X3042900Y907200D02*
D03*
X3017500D02*
D03*
X3042900Y937200D02*
D03*
X3017500D02*
D03*
X3282900Y967200D02*
D03*
X3257500D02*
D03*
X3282900Y907200D02*
D03*
X3257500D02*
D03*
X3282900Y937200D02*
D03*
X3257500D02*
D03*
X3522900Y967200D02*
D03*
X3497500D02*
D03*
X3522900Y907200D02*
D03*
X3497500D02*
D03*
X3522900Y937200D02*
D03*
X3497500D02*
D03*
X3762900Y967200D02*
D03*
X3737500D02*
D03*
X3762900Y907200D02*
D03*
X3737500D02*
D03*
X3762900Y937200D02*
D03*
X3737500D02*
D03*
X4002900Y967200D02*
D03*
X3977500D02*
D03*
X4002900Y937200D02*
D03*
X3977500D02*
D03*
X3003800Y2799000D02*
D03*
X3029200D02*
D03*
X402900Y907200D02*
D03*
X377500D02*
D03*
D93*
X3610200Y392500D02*
D03*
X3677200Y292500D02*
D03*
X3978200D02*
D03*
X3130200Y392500D02*
D03*
X3197200Y292500D02*
D03*
X3498200D02*
D03*
X2650200Y392500D02*
D03*
X2717200Y292500D02*
D03*
X3018200D02*
D03*
X2170200Y392500D02*
D03*
X2237200Y292500D02*
D03*
X2538200D02*
D03*
X1690200Y392500D02*
D03*
X1757200Y292500D02*
D03*
X2058200D02*
D03*
X1210200Y392500D02*
D03*
X1277200Y292500D02*
D03*
X1578200D02*
D03*
X730200Y392500D02*
D03*
X797200Y292500D02*
D03*
X1098200D02*
D03*
X250200Y392500D02*
D03*
X317200Y292500D02*
D03*
X618200D02*
D03*
X1748450Y2726262D02*
D03*
X2375130Y2410500D02*
D03*
X2459950Y2206500D02*
D03*
X2649070Y2262578D02*
D03*
X2378190Y1976070D02*
D03*
X3018200Y2488000D02*
D03*
X2706280Y2003318D02*
D03*
X2375490Y2026870D02*
D03*
D94*
X2025890Y2455240D02*
D03*
X2037890D02*
D03*
D166*
X2916563Y2799000D02*
D03*
D167*
X2944249D02*
D03*
M02*
