M48
;Layer_Color=9474304
;FILE_FORMAT=4:4
METRIC,LZ
;TYPE=PLATED
T1F00S00C0.3000
T2F00S00C0.3300
T3F00S00C0.5000
T4F00S00C0.9000
T5F00S00C1.0000
T6F00S00C1.0200
T7F00S00C1.1000
T8F00S00C1.2000
T9F00S00C1.3000
T10F00S00C1.4000
T11F00S00C1.6000
T12F00S00C3.2000
;TYPE=NON_PLATED
T13F00S00C0.9000
T14F00S00C3.2500
%
T01
X0021Y0035
X00245
X003422Y00348
X003432Y00391
X00391199Y0036
X003977Y003865
X003972Y00396
X004422Y00388
X004532Y00393
X004572Y00366
X004132Y00337
X004312Y00292
X004962Y00321
X005342Y00358
X005662Y00348
X006475Y00385
X006825
X007525
X008232Y00391
X008222Y00348
X008722Y00360392
X008777Y003865
X008772Y00396
X009222Y00388
X009332Y00393
X009372Y00366
X008932Y00337
X009112Y00292
X009762Y00321
X010162Y00358
X010462Y00348
X011375Y00385
X013032Y00391
X013022Y00348
X01351197Y0036
X013577Y003865
X013572Y00396
X014022Y00388
X014132Y00393
X014172Y00366
X013732Y00337
X013912Y00292
X014562Y00321
X014952Y00358
X015262Y00348
X015925Y00385
X016275
X017832Y00391
X017822Y00348
X018322Y00360392
X018377Y003865
X018372Y00396
X018822Y00388
X018932Y00393
X018972Y00366
X018532Y00337
X018712Y00292
X019362Y00321
X019762Y00356
X020062Y00348
X020825Y00385
X021175
X021525
X021875
X022632Y00391
X022622Y00348
X023112Y00360819
X023177Y003865
X023172Y00396
X023622Y00388
X023732Y00393
X023772Y00366
X023332Y00337
X023512Y00292
X024162Y00321
X024542Y00359
X024862Y00348
X025725Y00385
X026075
X027432Y00391
X027422Y00348
X02790054Y00360819
X027977Y003865
X027972Y00396
X028422Y00388
X028532Y00393
X028572Y00366
X028132Y00337
X028312Y00292
X028962Y00321
X029342Y0036
X029662Y00348
X03062501Y00385
X032232Y00391
X032222Y00348
X032722Y00360392
X032777Y003865
X032772Y00396
X033222Y00388
X033332Y00393
X033372Y00366
X032932Y00337
X033112Y00292
X033762Y00321
X034142Y00359
X034462Y00348
X03517501Y00385
X03552501
X037032Y00391
X037022Y00348
X03750193Y0036
X037577Y003865
X037572Y00396
X038022Y00388
X038132Y00393
X038172Y00366
X037732Y00337
X037912Y00292
X038562Y00321
X038922Y00357
X039262Y00348
X03955001Y0035
X03990001
X04025001
X04042501Y00385
X04007501
X03990001Y0042
X04025001
X04042501Y00455
X04025001Y0049
X03990001
X03972501Y00525
X03990001Y0056
X04025001
X040132Y00581
X04042501Y00595
X04025001Y0063
X03990001
X03972501Y00665
X04042501
Y00735
Y00525
X03972501Y00595
Y00455
X039432Y00468
X03955001Y0049
X039432Y00506
X039422Y00524
X039382Y00541
X03955001Y0056
X039242Y00566
X03937501Y00595
X03902501
X038742Y00587
X038522Y00601
X038432Y0061
X038332Y0062
X038222Y00628
X03850001Y0063
X03885001
X03920001
X03955001
X03937501Y00665
X03902501
X03867501
X038652Y00728
X038292Y007392
X03815001Y0077
X03850001
X039225Y007772
X03815001Y007
X03762501Y00665
X03727501
X03692501
X037032Y00644
X03657501Y00665
X03622501
X03587501
X035892Y007392
X03605001Y0077
X036825Y007772
X037292Y00716
X03745001Y0056
X037442Y00496
X037452Y00483
X037612Y00445
X038022Y00436
X037972Y0047525
X038012Y00514
X03885001Y0056
X03902501Y00455
X038932Y00414
X03955001Y0042
X03675001Y0049
Y0056
X03640001
X03605001
X03622501Y00455
X03587501
X03552501
X03570001Y0049
Y0056
X035332Y00581
X03500001Y0056
X03465001
X034582Y00541
X034622Y00524
X034632Y00506
Y00468
X03447501Y00455
X03482501
X03500001Y0049
X03395001
X033172Y0047525
X033212Y00514
X032642Y00496
X032652Y00483
X032812Y00445
X033222Y00436
X03237501Y00455
X03185001Y0049
Y0056
X03255001
X032232Y00644
X03202501Y00665
X03272501
X03342501
X03377501
X03412501
X03447501
X03482501
X03517501
X03552501
X03570001Y007
Y0077
X03500001
X034425Y007772
X03360001Y0077
X033492Y007392
X033852Y00728
X034132Y0063
X034182Y0062
X034232Y0061
X034282Y006
X034332Y0059
X034442Y00566
X034132Y00414
X032492Y00716
X032025Y007772
X03115001Y0077
X03080001
X031092Y007392
X03080001Y007
X03097501Y00665
X03132501
X03167501
X03062501
X03027501
X02992501
X02957501
X02922501
X029332Y0063
X029382Y0062
X029432Y0061
X029482Y006
X029532Y0059
X029642Y00566
X02975001Y0056
X029782Y00541
X029822Y00524
X029832Y00506
Y00468
X02992501Y00455
X03027501
X03062501
X03097501
X03132501
X03115001Y0049
X03150001
Y0056
X03115001
X03080001
X030532Y00581
X03010001Y0056
Y0049
X03080001
X02957501Y00455
X029332Y00414
X028422Y00436
X028372Y0047525
X028412Y00514
X027842Y00496
X027852Y00483
X028012Y00445
X02800001Y0056
X02782501Y00665
X028692Y007392
X02870001Y0077
X02940001
X029625Y007772
X029052Y00728
X027692Y00716
X02747501Y00665
X027432Y00644
X02712501Y00665
X02677501
X02642501
X026075
X025375
X025025
X024675
X024325
X024532Y0063
X024582Y0062
X024632Y0061
X024682Y006
X024732Y0059
X024842Y00566
X024982Y00541
X025022Y00524
X025032Y00506
X0252Y0049
X02555
X02590001
X02625001
X02642501Y00455
X026075
X025375
X025032Y00468
X024675Y00455
X024532Y00414
X023962Y00554
X0252Y0056
X02555
X02590001
X02625001
X02660001
X02695001
X02730001
X02765001
X02730001Y0049
X025732Y00581
X026292Y007392
X02625001Y0077
X02695001
X027225Y007772
X024825
X024252Y00728
X023892Y007392
X0238Y0077
X023542Y00652
X022925Y00665
X022632Y00644
X022225Y00665
X021875
X021525
X021175
X020825
X020475
X020125
X019882Y006
X019932Y0059
X020042Y00566
X020182Y00541
X020222Y00524
X020232Y00506
Y00468
X02065Y0049
X02135
X021525Y00455
X021175
X02135Y0056
X0217
X02205
X0224
Y0049
X02275
X023042Y00496
X023052Y00483
X023212Y00445
X023622Y00436
X023572Y0047525
X023612Y00514
X02345Y0056
X023032Y0057
X022892Y00716
X022425Y007772
X0217Y0077
X02135
X021492Y007392
X02135Y007
X020932Y00581
X02065Y0056
X020025Y007772
X019452Y00728
X019092Y007392
X019425Y00665
X019732Y0063
X019782Y0062
X019832Y0061
X019775Y00455
X019732Y00414
X018822Y00436
X018772Y0047525
X0189Y0049
X018812Y00514
X018242Y00496
X018252Y00483
X018412Y00445
X0182Y0056
X0175
X01715
X0168
X01645
X016132Y00581
X016275Y00665
X016625
X016975
X017325
X017675
X018025
X018375
X017832Y00644
X018092Y00716
X0182Y0077
X017625Y007772
X0168Y0077
X01645
X016692Y007392
X01645Y007
X015925Y00665
X01645Y0049
X016625Y00455
X016975
X01715Y0049
X0175
X016275Y00455
X015575
X015432Y00468
X015225Y00455
X014932Y00414
X014022Y00436
X013972Y0047525
X014012Y00514
X013442Y00496
X013452Y00483
X013612Y00445
X013125Y00455
X012075
X01225Y0049
Y0056
X0126
X0133
X01365
X013475Y00665
X013125
X013032Y00644
X012775Y00665
X012425
X012075
X0126Y0077
X012825Y007772
X013292Y00716
X014292Y007392
X01435Y0077
X014652Y00728
X014525Y00665
X014875
X015225
X015575
X014932Y0063
X014982Y0062
X015032Y0061
X015082Y006
X015132Y0059
X015242Y00566
X015382Y00541
X015422Y00524
X015432Y00506
X01575Y0049
Y0056
X015225Y007772
X0119Y0077
X011892Y007392
X01155Y0077
X010425Y007772
X00945Y0077
X009492Y007392
X009852Y00728
X009975Y00665
X010132Y0063
X010182Y0062
X010232Y0061
X010282Y006
X010332Y0059
X010442Y00566
X010582Y00541
X010622Y00524
X010632Y00506
X01085Y0049
X0112
X01155
X0119
X011725Y00455
X011375
X011025
X010632Y00468
X010325Y00455
X010132Y00414
X009222Y00436
X009172Y0047525
X009212Y00514
X008642Y00496
X008652Y00483
X0084Y0049
X00805
Y0056
X0084
X00875
X008812Y00445
X008575Y00665
X008225
X008232Y00644
X008492Y00716
X008025Y007772
X011025Y00665
X011725
X01155Y0056
X0119
X0112
X011332Y00581
X01085Y0056
X0077
X00735
X007
X00665
X006532Y00581
X0063Y0056
X00595
X005782Y00541
X005822Y00524
X005832Y00506
X00595Y0049
X005832Y00468
X006125Y00455
X0063Y0049
X00665
X007
X007175Y00455
X006825
X005425
X005332Y00414
X004422Y00436
X004372Y0047525
X004412Y00514
X004025Y00525
Y00595
X004725
X0049Y0063
X005332Y0063
X005382Y0062
X005432Y0061
X005482Y006
X005532Y0059
X005642Y00566
X005775Y00665
X006125
X006825
X007175
X007525
X007875
X007092Y007392
X007Y0077
X005625Y007772
X0049Y0077
X004692Y007392
X005052Y00728
X005075Y00665
X005425
X004025
X004012Y00445
X003852Y00483
X003842Y00496
X00385Y0056
X003675Y00595
X003325
X002975
X002625
X002275
X0021Y0063
X00245
X0028
X00315
X003432Y00644
X003325Y00665
X003675
X00385Y0063
X003692Y00716
X003225Y007772
X00245Y0077
X0021
X002292Y007392
X0021Y007
X002275Y00665
X002625
X002975
X0028Y0056
X00315
X003325Y00525
X002975
X002625
X002275
X0021Y0056
X00245
X0021Y0049
X002275Y00455
X002625
X0021Y0042
X00315Y0049
X0035Y0084
Y0091
X003325Y00945
X0035Y0098
X00245
X0021
X002275Y00945
X002625
X00245Y0091
X0028
X002975Y00875
X002625
X002275
X0021Y0084
X002275Y00805
X0028Y0084
X003Y0105
X006
X00595Y0091
Y0084
X00525
X005075Y00875
X0049Y0091
X00525
X00455Y0084
X004725Y00805
X006825
X007Y0084
X006825Y00875
X007525
X00735Y0091
X0077
Y0084
X007525Y00805
X0075Y0105
X009
X0084Y0091
Y0084
X00945
X009625Y00805
X0098Y0091
X010675Y00875
X01085Y0084
X01155
X011725Y00875
X01155Y0091
X011725Y00805
X012075
X0126Y0084
X01295
X013125Y00875
X01295Y0091
X0126
X01225
X012425Y00875
X014175
X014875
X0147Y0091
X0154
X015575Y00875
X0154Y0084
X015575Y00805
X014175
X012Y0105
X01645Y0091
X016625Y00875
X016975
X017325
X01715Y0091
X01785
X018025Y00875
X01785Y0084
X0175
X01715
X01645
X016625Y00805
X018025
X019425Y00875
Y01015
X018882Y01005
X018375Y01015
X018025
X017675
X01785Y0105
X0182
X01855
X018375Y01085
X018025
X0182Y0112
X01855
X019042Y01118
X018952Y01091
X019202Y01146
X019392Y01173
X01855Y0119
X018375Y01155
X020062Y01159
X02033196Y01183998
X020492Y01183
X020602Y01179
X020702Y01137
X021032
X02165196Y01140998
X0215445Y0118474
X022242Y01163
X022575Y01155
X0224Y0112
X02275
X022925Y01085
X023275
X0231Y0105
X02345
X023275Y01015
X022925
X022575
X022225
X021875
X02205Y0105
X0224
X02275
Y0091
Y0084
X02205
Y0091
X02135Y0084
X021525Y00805
X0203Y0084
Y0091
X020475Y01015
X020825
X02065Y0105
X021
X020825Y01085
X020475
X020125
X01995Y0105
X0203
X020125Y01015
X02345Y0119
X0238Y0084
X023975Y00805
X024325
X0245Y0084
X024325Y00875
X02415Y0091
X0245
X0252
Y0084
X02625001
X02642501Y00805
X026075
Y00875
X02677501
X02660001Y0091
X02695001
X027357Y009222
X02747501Y00875
X02765001Y0084
X02695001
X027Y0105
X0255
X024
X023975Y01015
X02905001Y0091
X02940001
X02975001
X02992501Y00875
X02975001Y0084
X02940001
X02922501Y00875
X02887501Y00805
X03097501Y00875
X03150001Y0091
X0315Y0105
X030572Y00988
X03220001Y0091
X03237501Y00875
X03220001Y0084
X03185001
X03237501Y00805
X03342501
Y00875
X03377501
X03412501
X03395001Y0091
X03465001
X03482501Y00875
X03465001Y0084
X03430001
X03395001
X03482501Y00805
X03552501
X03570001Y0084
X03552501Y00875
X0345Y0105
X033
X033097Y0102475
X033182Y010135
X036Y0105
X03605001Y0091
X03640001
X03657501Y00875
X03622501
X03587501
Y00805
X03640001Y0084
X03710001
Y0091
X03850001
X03885001
X03867501Y00875
X03885001Y0084
X03955001
Y0091
X039Y0105
X0381195Y01002
X0378945Y010195
X0375Y0105
X03815001Y0084
X03832501Y00805
X04042501
Y00875
Y00945
X04025001Y0098
X0315Y0135
X0285
X028497Y01249
X0283395Y0126125
X02925Y012
Y015
X02775
X02625
X02475
X0255Y0135
X027
X02775Y012
X02625
X02475
X024Y0135
X0232331Y01327809
X02275Y0133
X0225Y0135
X021875Y01365
X021752Y0136
X021512Y01359
X021332Y0136
X021102
X02089109Y01360091
X020672Y01359
X020462Y0136
X020242Y01359
X020125Y01365
X020022Y01359
X01995Y0133
X020125Y01295
X020602Y01288
X020592Y01253
X020572Y0123474
X020552Y01204
X02061196Y01190998
X021002Y01194
X020882Y01207
X020802Y01215
X020952Y01216
X021102Y0122474
X021162Y01213
X0210548Y0124572
X0209748Y01257794
X021162Y01268
X021407Y0127375
X0214795Y0126125
X021525Y01295
X021757Y01304
X02135Y0133
X021042Y01344
X021762Y0142
X021875Y01435
X022575
X023507Y01467
X022925Y01295
Y01225
X022502Y01223
X022422Y01232
X0223957Y0119763
X022592Y0119825
X0225995Y0120975
X021622Y01229
X021112Y01514
X020892Y01524
X020662Y01539
X020452Y01547
X020252Y01555
X020125Y01435
X019802Y01359
X019582Y01358
X0178Y0136
X0174
X0170395Y013775
X0169445Y0137975
X0171045Y01389
X0171845Y014005
X0176Y014
X018
X0178Y0144
Y0152
X0176145Y01517
X017512Y0152825
X017462Y015055
X01724742Y01553335
X017252Y01565
X018Y0156
X01664238Y01542835
X01636987Y01540084
X01613986Y01539084
X01601736Y01546335
X01587985Y01540835
X01590235Y01555085
X01612236Y01511583
X016082Y01472392
X0162254Y0147846
X0165254Y0147844
X01670739Y01482582
X016772Y01494
X01676489Y01516833
X01648738Y01524834
X0167995Y0147275
X0165245Y0143525
X0164795Y01421
X016242Y01408
X016157Y01399
X0160754Y013936
X0160145Y013615
X0163754Y0136566
X0164Y0132
X0168
X016817Y013525
X016792Y01404
X0172Y0132
X0176
X018
X016
X0159254Y0147798
X01579734Y01514583
X01574234Y01537334
X01558483Y01547835
X01540233Y01545335
X01532982Y01539584
X01530482Y01525834
X01548622Y01525968
X01512731Y01515583
X0149898Y01515833
X0149198Y01529584
X01478229Y01528334
X01476229Y01517833
X014677Y01509
X0146254Y0147844
X01449978Y01471581
X01445478Y01485332
X0143834Y0149309
X014297Y0147125
X014Y0148
X0136
X0132
X0134Y0152
X013
X01275Y015
X013Y0144
X0134
X0136Y014
X014
X0144
X0145745Y0140275
X01466229Y01393827
X0147998
X014932Y01405
X01506981Y01391327
X015057Y013635
X015127Y0135475
X015312Y01363
X015482Y013655
X0155645Y0139525
X015547Y01407
X01566484Y01414578
X015372Y0139925
X015312Y01467
X0151944Y0147742
X0149254Y0147846
X01472999Y0143525
X0142Y0144
Y0136
X0146
X0144Y0132
X0148
X0152
X0156
X014
X0136
X0132
X012Y0135
X01275Y012
X0132Y0156
X0136
X014
X014227Y0152
X014682Y0155025
X0147195Y015695
X014567Y0157075
X01499219Y01566844
X015792Y01572
X015782Y01587
X01125Y015
X00975
X00825
X009Y0135
X00975Y012
X01125
X00825
X00675
X0075Y0135
X006
X0045
X00525Y015
X00675
X00375
X003Y0135
X00375Y012
X003Y0165
X00375Y018
X003Y0195
X0045
X006
X0075
X00675Y018
X00525
X006Y0165
X0075
X0045
X009
X00975Y018
X01125
X00825
X009Y0195
X012
X0132Y0196
X013662Y019415
X0138995Y0194625
X014Y0196
X0141495Y01951
X014072Y019305
X014267Y0192306
X014352Y0191625
Y0196725
X014732Y0193125
X0151893Y0195552
X01532482Y01959355
X0156Y0196
X015847Y019195
X0158045Y0191
X015767Y0189675
X0156Y0188
X0153595Y0190325
X015862Y018465
X0156Y018
X015712Y017815
X0156995Y0173625
X0157095Y0172425
X015712Y017145
X015682Y0169775
X0157595Y01677
X015782Y01636
Y016245
Y01612
Y016
X014952Y01645
X014962Y01656
X014972Y01668
X015027Y017805
X0152695Y0179475
X014852Y01816
X014862Y01825
X01437198Y01847996
X0142076Y0187306
X014Y0188
X0136
X01373198Y01854996
X0134Y0184
X0132Y0188
Y018
X0136
X014
X014202Y01812
X014367Y0178325
X014Y0172
X0136
X0132
X0134Y0176
X013
X01275Y018
X012472Y01864
X0138Y0192
X0134Y0168
X013
X0132Y0164
X0136
X014
X0134Y016
X013
X012Y0165
X0158545Y0174325
X016242Y01737
X0161745Y0172725
X0161745Y01714
X01630737Y01704843
X0164545Y0169675
X0163495Y016825
X016212Y01691
X0165395Y0172125
X01653988Y01742094
X0169045Y01744
X016992Y01739
X0171695Y01732
X01710128Y01718
X017222Y01696
X017752Y01714
X017882Y01801
X017272Y01804
X0172231Y0178075
X017047Y0178925
X0168195Y0178075
X016712Y01795
X016502Y01792
X016222Y01796
X0162231Y0178104
X01607474Y01793605
X016002Y01869
X016192Y01876
X016572Y01869
X016682Y01872
X0168Y0188
X0172
X017652Y0188
X017647Y01943
X0177614Y0193306
X017252Y01931
X016972Y01911
X0168Y0196
X0164597Y01978
X0168195Y0183925
X0173026Y0183302
X0182Y0192
X0186
X018722Y01877
X018872Y01856
X01931196Y01855997
X019332Y01963
X0198Y0192
X019502Y01695
X019802Y01635
X018532Y01762
X02001196Y01675997
X020212Y01659
X020572Y01644
X021Y0165
X0225
X02175Y018
X0217284Y0191302
X0220586
X022342Y01873
X0225406Y0193488
X0212Y0196
X021Y0195
X0208Y0196
X0204
X021Y0192
X020722Y01825
X020502Y01815
X02475Y018
X02625
X026352Y01917
Y01935
X026512Y01926
Y01944
X026182
Y01926
X027Y0195
X02775Y018
X027Y0165
X0255
X024
X0285
X02925Y018
X028692Y01964
Y01982
X028532Y01973
X028362Y01964
Y01982
X030462Y01979
Y01961
X030642Y0197
X030822Y01979
Y01961
X0315Y0195
Y0165
X030822Y01997
Y02015
X030642Y02006
Y02024
X030462Y02015
X028692Y02018
Y02
X028532Y02009
Y01991
X028362Y02
Y02018
X028532Y02027
X028002Y0211822
X028552Y02196
X03Y0225
X0315
X031212Y02208
X027502Y02229
X027422Y0234
Y02358
X027262Y02349
Y02331
X027092Y0234
Y02358
X025532Y02300938
Y02282938
X025372Y02291938
Y02273938
X025202Y02282938
Y02300938
X0251109Y02215
X02558712Y02177
X026232Y02229
X02625Y021
X02775
X02475
X024322Y02022
X024202
X0240595Y01999192
X0243661Y0198623
X024Y0225
X024812Y02378
X0214Y0232
X021
X0208Y0228
X0212
Y022
X0208
X0204
Y0228
X020792Y02366
X019912
X0204Y0212
X0208
X0212
X021Y0208
Y02
X0217284Y0199176
X0221094
X022242Y02032
X0220856Y0207063
X0217284Y020705
X02175Y021
X0217284Y021467
X0220981Y0214663
X022242Y02228
X023382Y02085
X0194Y0208
X019252Y02102
X019012Y02113
Y02129
X018732Y02123
X0188Y022
X0192
X0196
Y0228
X0192
X0188
X018222Y0228
X018332Y02296
X018432Y02314327
X018562Y0233
X0184Y0236
X0188
X0192
X0196
X0198Y0232
X0194
X019
X018Y0236
X0176
X0172
X0168
X016
X016942Y02259
X016952Y02248
Y02238
X0171448Y0227028
X0168Y022
X0176
X018
X0178Y0208
X0174
X017242Y02078
X0172Y0204
X0173145Y020405
X0172745Y02031
X0172145Y020075
X01724197Y01997996
X017142Y0201475
X017647Y0200825
X01766994Y02031108
X017742Y02042
X0188Y0204
X0196
X0194Y02
X016392Y0198475
X0164Y0204
X0162731Y02037
X016212Y02095
X016272Y02104
X01643197Y02103996
X016572Y0207925
X016132Y02088
X016062Y02081
X015932Y02086
X015862Y02079
X0158145Y0204125
X0155731Y02037
X015152Y02036
X0151445Y02013651
X015292Y02006
X014772Y02008
X014862Y0199
X01482958Y02033781
X0146752Y0204062
X014917Y020795
X014882Y02089
X01524197Y02088996
X01540199Y02113999
X015422Y02123
X01548197Y02130996
X0154Y0216
X015632Y0216
X015692Y02153
X015772Y02147
X01583197Y02139996
X015212Y02152
X015Y0216
X0134
X0132Y022
X01275Y021
X0132Y0204
X0132595Y020135
X014Y0204
X014242Y02007
X0143295Y019855
X0124795Y0199075
X012312Y020265
X0132Y0236
X0136
X014
X0144
X0152
X0156
X010872Y02282
X010562Y0227028
X010272Y02248
X010172Y02257
X010357Y022375
X009782Y02296
X009612Y02314327
X009492Y0233
X009Y0225
X00975Y021
X01125
X010512Y02002
X00825Y021
X00675
X00525
X006Y0225
X0075
X0045
X003
X00375Y021
Y024
X003Y0255
X0045
X0046Y0264
X005
X0054
X0058
X0062
X0066
X007
X0074
X007512Y0266666
X0078Y0264
Y0272
X0074
X0072Y0276
X0076
X0068
X0064
X0066Y0272
X0064Y0268
X006
X0048
X0044
Y0276
X0052
X006Y0255
X0075
X00675Y024
X00525
X00825
X009Y0255
X009Y0264
X0086
X0082
X0084Y0268
X0088
X0086Y0272
X0082
X0084Y0276
X0088
X0092
X0104
X0108
X0112
X0116
X0114Y0272
X011502Y02699
X0112Y0268
X0108
X0104
X01
X0102Y0272
X0106
Y0264
X011
X0118
X0102
X0122
X0126
X013
X0134
X0138
X0142
X0146
X014832Y02644
X014932Y02624
X0152Y026
X0154083Y02602282
X015632Y02623
X0155645Y02634922
X015502Y02644
X0154195Y02682012
X0152Y0268
X0148
X0144
X014
X0142Y0272
X0146
X015
X0154
X0152Y0276
X0156
X0148
X0144
X0136
X0124
X012
X0122Y0272
X0126
X0124Y0268
X012
X0129121Y0258
X0134Y0256
X0132Y0252
X0134Y0248
X0138
X013682Y02498
X013812Y02512
X0142Y0248
X0146
X015
X0154
X0158
Y0256
X0154
X015
X0146
X0142
X0144Y026
X0158655Y02602282
X015827Y02682012
X0158Y024
X0154
X015
X0146
X0142
X0138
X0134
X013
X01275Y024
X012482Y02434
X013Y0248
X0162
X016332Y0246
X016412Y02448
X016512Y02441
X016332Y02425
X0162Y024
X017
X0174
X0178
X0182
X0186
Y0248
X0182
X0178
X0174
X017
X01668628Y02496
X016572Y02511
X0168Y0252
X0172
X0176
X018
X0184
X0188
X0192
X0194041Y02513002
X0195353Y02500942
X019712Y02468
X019812Y02475
X0190815Y02495222
X019Y0256
X0186
X0182
X0178
X0174
X017
X0166
X0162
X0161655Y02602762
X016Y026
X0165211Y02602762
X0168Y026
X0172
X0176
X018
X0184
X0188
X0192
X0194Y0264
X019
X018972Y02695
X019Y0272
X0194
X0195205Y0276015
X0192Y0276
X0188
X0184
X018
X0176
X0172
X017Y0272
X0166
X0165211Y02683082
X0162513
X0164505Y02658442
X0164497Y02627682
X017Y0264
X0174
X0172Y0268
X0176
X0180745Y02688262
X0184Y0268
X0186233Y02683262
X018442Y02645512
X0178Y0272
X0168Y0268
X0164Y0276
X016
X016012Y02735
X0196581Y02556182
X020202Y02549
X0204201Y02556182
X020772Y0254
X020752Y02526
X0205351Y02500022
X020312Y02492
X020152Y0249125
X020632Y02473
X020772Y02467
X020892Y02464
X021012Y0246
X0212845Y024775
X0213845Y024845
X021602Y02458
X02175Y024
X0214Y024
X0212583Y02401242
X0208011Y02383462
X020702Y02412
Y02425
X020562Y02413262
X0202931Y02401242
X0202169Y02383462
X0201538Y02682942
X0205345Y0270525
X0208Y0268
X0212
X021602Y0269525
X021692Y02664
X0223045Y0267025
X022307Y027335
X0214Y0272
X0212Y0276
X0202825Y027655
X0200285Y027664
X0225Y0255
X02325Y024
X024Y0255
X0255
X027
X02775Y027
X02625
X02475
X02625Y024
X02775
X02925
X03075
Y027
X0315Y0285
X03
X0285
X027
X0255
X024
X0225
X0214Y028
X02090762Y02799438
X020507Y0281175
X0203345Y028255
X0197945Y02798841
X019427Y0278275
X019Y028
X0186
X0182
X0178
X0174
X0154
X015
X0146
X0142
X0138
X013
X0126
X0122
X0118
X0114
X0106
X0098
X0094
X009
X006427Y0280266
X0054Y028
T02
X0202589Y0245524
X0203789
T03
X0228686Y0147434
X022002Y01961
X025932
X027072Y02168
X023752Y02247
X022532
X0228346Y02168
X022862Y02116
X0210631Y0224689
X017302
X023162Y02645512
X023242Y02696
T04
X0038762Y0024656
X0041502
X0044242
X0046982
X0049722
X0048352Y0022116
X0045612
X0042872
X0040132
X0088132
X0090872
X0093612
X0096352
X0094982Y0024656
X0097722
X0092242
X0089502
X0086762
X0134762
X0137502
X0140242
X0142982
X0145722
X0144352Y0022116
X0141612
X0138872
X0136132
X0184132
X0186872
X0189612
X0192352
X0190982Y0024656
X0193722
X0188242
X0185502
X0182762
X0230762
X0233502
X0236242
X0237612Y0022116
X0234872
X0232132
X0240352
X0238982Y0024656
X0241722
X0278762
X0281502
X0284242
X0286982
X0289722
X0288352Y0022116
X0285612
X0282872
X0280132
X0328132
X0330872
X0333612
X0336352
X0334982Y0024656
X0337722
X0332242
X0329502
X0326762
X0374762
X0377502
X0380242
X0382982
X0385722
X0384352Y0022116
X0381612
X0378872
X0376132
X0197892Y019778
Y020032
Y020286
Y02054
Y020794
Y021048
Y021302
Y021556
Y02181
X016192Y02191
X015938
X015684
X01543
X015176
X014922
X014668
X014414
X01416
X013906
X013652
X013398
X007441Y0273766
X007187
X006933
X005568Y0276796
X004806
X0200429Y02843202
X0202461
X0204493
X0203477Y02860982
X0201445
X0199413
X0197381
X0198397Y02843202
X0140195Y02834814
X0137455
X0134715
X0131975
X0129235
X0130605Y02863262
X0133345
X0136085
X0138825
X007922Y0286691
Y0284151
Y0281611
X0068185Y0289941
X0065645
X0063105
X005568Y0279336
X004806
T05
X00219682Y00248356
Y00273756
X00245082
Y00248356
X003172Y003925
X006182
X00699682Y00273756
Y00248356
X00725082
Y00273756
X007972Y003925
X010982
X01179682Y00273756
Y00248356
X01205082
Y00273756
X012772Y003925
X015782
X017572
X01685082Y00273756
X01659682
Y00248356
X01685082
X02139682
Y00273756
X02165082
Y00248356
X022372Y003925
X020582
X025382
X027172
X02645082Y00273756
X02619682
Y00248356
X02645082
X03099682
Y00273756
X03125082
Y00248356
X030182Y003925
X031972
X034982
X036772
X03605082Y00273756
X03579682
Y00248356
X03605082
X039782Y003925
X036102Y004925
X031302
X026502
X021702
X016902
X012102
X007302
X002502
X002182Y009002
X003775Y009072
Y009372
Y009672
X004029
Y009372
Y009072
X004582Y009002
X006175Y009072
X006429
Y009372
X006175
Y009672
X006429
X006982Y009002
X008575Y009072
X008829
Y009372
X008575
Y009672
X008829
X009382Y009002
X010975Y009072
X011229
Y009372
X010975
Y009672
X011229
X011782Y009002
X013375Y009072
X013629
Y009372
X013375
Y009672
X013629
X014182Y009002
X015775Y009072
Y009372
Y009672
X016029
Y009372
Y009072
X016582Y009002
X018175Y009072
X018429
Y009372
X018175
Y009672
X018429
X018982Y009002
X020575Y009072
X020829
Y009372
X020575
Y009672
X020829
X021382Y009002
X022975Y009072
X023229
Y009372
X022975
Y009672
X023229
X023782Y009002
X025375Y009072
X025629
Y009372
X025375
Y009672
X025629
X026182Y009002
X027775Y009072
Y009372
Y009672
X028029
Y009372
Y009072
X028582Y009002
X030175Y009072
X030429
Y009372
X030175
Y009672
X030429
X030982Y009002
X032575Y009072
X032829
Y009372
X032575
Y009672
X032829
X033382Y009002
X034975Y009072
X035229
Y009372
X034975
Y009672
X035229
X035782Y009002
X037375Y009072
X037629
Y009372
X037375
Y009672
X037629
X038182Y009002
X039775Y009072
X040029
Y009372
X039775
Y009672
X040029
X0130306Y018385
X0127766
Y01879547
X0130306
Y01920593
X0127766
Y0196164
X0130306
X0237819Y0187607
X0270628Y01903318
X028902Y01898
X030972Y01899
X0302212Y02276
X029552Y02276
X0264907Y02362578
X0245995Y023065
X0237549Y0212687
X0174845Y02626262
X0237513Y025105
X030182Y02388
X030292Y02708
Y02799
X030038
T06
X0102977Y0260911
X0105517
X0108057
X0110597
T07
X003172Y002925
X002502Y003925
X006182Y002925
X007302Y003925
X007972Y002925
X010982
X012772
X012102Y003925
X015782Y002925
X017572
X016902Y003925
X020582Y002925
X022372
X021702Y003925
X025382Y002925
X027172
X026502Y003925
X030182Y002925
X031302Y003925
X031972Y002925
X034982
X036772
X036102Y003925
X039782Y002925
X003182Y009002
X005582
X007982
X010382
X012782
X015182
X017582
X019982
X022382
X024782
X027182
X029582
X031982
X034382
X036782
X039182
X0237819Y0197607
X027902Y01898
X029972Y01899
X0312212Y02276
X028552Y02276
X0264907Y02262578
X0245995Y022065
X0270628Y02003318
X0237549Y0202687
X0174845Y02726262
X0237513Y024105
X030182Y02488
X029292Y02708
T08
X031422Y02694
Y02729
Y02764
Y02799
T09
X027952Y02519
X028714
Y02741
X027952Y02709
Y02773
T10
X004747Y0286266
X005097
X005447
T11
X02090396Y02852092
X01928344
T12
X001732Y00197
X0031747Y0023386
X0056737
X0079747
X0104737
X0127747
X0152737
X016232Y00197
X0175747Y0023386
X0200737
X0223747
X0248737
X026232Y00197
X0271747Y0023386
X0296737
X0319747
X0344737
X0367747
X0392737
X040832Y00197
Y01007
X027732Y01377
X013232
X001732
X031032Y02857
X017732
X014721Y02849038
X012222
X001732Y02857
T13
X016252Y02873
X015812
X0106189Y0287878
X0101789
T14
X0207287Y02886382
X0194587
M30
