M48
;Layer_Color=9474304
;FILE_FORMAT=4:4
METRIC,LZ
;TYPE=PLATED
T1F00S00C0.3000
T2F00S00C0.3300
T3F00S00C0.5000
T4F00S00C0.9000
T5F00S00C1.0000
T6F00S00C1.0200
T7F00S00C1.1000
T8F00S00C1.2000
T9F00S00C1.3000
T10F00S00C1.4000
T11F00S00C1.6000
T12F00S00C3.2000
;TYPE=NON_PLATED
T13F00S00C0.9000
T14F00S00C3.2000
%
T01
X002Y0024
X0028
X003Y0028
X0034
X0038
X0036Y0032
X0032
X003422Y00348
X003432Y00391
X00391199Y0036
X0026Y0036
X0024Y0032
X002
X0026Y0028
X0036Y0024
X004Y0032
X004132Y00337
X004312Y00292
X004962Y00321
X005342Y00358
X005662Y00348
X0058Y0028
X0066
X0068Y0024
X0076
X0078Y0028
X0074
X004572Y00366
X004532Y00393
X004422Y00388
X003977Y003865
X003972Y00396
X008232Y00391
X008222Y00348
X008722Y00360392
X008777Y003865
X008772Y00396
X009222Y00388
X009332Y00393
X009372Y00366
X008932Y00337
X009112Y00292
X0086Y0028
X0082
X0084Y0024
X009762Y00321
X010162Y00358
X010462Y00348
X0106Y0028
X0114
X0116Y0024
X0124
X0126Y0028
X013
X0134
X0132Y0024
X013912Y00292
X013732Y00337
X01351197Y0036
X013577Y003865
X013572Y00396
X014022Y00388
X014132Y00393
X014172Y00366
X014562Y00321
X014952Y00358
X015262Y00348
X0154Y0028
X013022Y00348
X013032Y00391
X0122Y0028
X0162
X0164Y0024
X0172
X0174Y0028
X0178
X0182
X018Y0024
X018712Y00292
X018532Y00337
X018322Y00360392
X018377Y003865
X018372Y00396
X018822Y00388
X018932Y00393
X018972Y00366
X019362Y00321
X019762Y00356
X017822Y00348
X017832Y00391
X017Y0028
X0202
X021
X0212Y0024
X022
X0222Y0028
X0226
X023
X0228Y0024
X023512Y00292
X023332Y00337
X023112Y00360819
X023177Y003865
X023172Y00396
X023622Y00388
X023732Y00393
X023772Y00366
X022622Y00348
X022632Y00391
X0218Y0028
X020062Y00348
X024162Y00321
X024542Y00359
X024862Y00348
X025Y0028
X0258
X026Y0024
X0268
X027Y0028
X0274
X0276Y0024
X027422Y00348
X027432Y00391
X0266Y0028
X0278
X028312Y00292
X028132Y00337
X02790054Y00360819
X027977Y003865
X027972Y00396
X028422Y00388
X028532Y00393
X028572Y00366
X029342Y0036
X029662Y00348
X0298Y0028
X0306
X0308Y0024
X0316
X0314Y0028
X028962Y00321
X0318Y0028
X0322
X0326
X0324Y0024
X033112Y00292
X032932Y00337
X032722Y00360392
X032777Y003865
X032772Y00396
X033222Y00388
X033332Y00393
X033372Y00366
X034142Y00359
X034462Y00348
X0346Y0028
X0354
X0356Y0024
X033762Y00321
X032222Y00348
X032232Y00391
X037032
X037022Y00348
X03750193Y0036
X037577Y003865
X037572Y00396
X038022Y00388
X038132Y00393
X038172Y00366
X037732Y00337
X037912Y00292
X0374Y0028
X037
X0366
X0362
X0364Y0024
X0372
X038562Y00321
X038922Y00357
X039262Y00348
X0396Y0032
X0394Y0028
X0402
X04Y0032
X0402Y0036
X0398
X04Y004
X0402Y0044
X04Y0048
X0398Y0052
X04Y0056
X040132Y00581
X0398Y006
X04Y0064
X0398Y0068
X0394
X039
X038932Y0063
X038982Y0062
X039032Y0061
X039082Y006
X039132Y0059
X039242Y00566
X039382Y00541
X039422Y00524
X039432Y00506
Y00468
X0396Y0048
X0394Y0044
X038932Y00414
X0386Y0044
X038022Y00436
X037972Y0047525
X038012Y00514
X037442Y00496
X037452Y00483
X037612Y00445
X0376Y0056
X0372
X0368
X0364
X036
Y0064
X0364
X0368
X037032Y00644
X037Y0068
X0374
X037292Y00716
X0366Y0068
X0362
X0358
X035892Y007392
X0358Y0076
X0366
X036825Y007772
X0382Y0076
X038292Y007392
X038652Y00728
X0388Y0072
X0392
X0396
Y0064
X0392
X0388
X0384
X0382Y0068
X039Y0076
X039225Y007772
X0394Y006
X0396Y0056
X0356
X0352
X035332Y00581
X0352Y0064
X0356
X0348
X0344
X034132Y0063
X034182Y0062
X034232Y0061
X034282Y006
X034332Y0059
X034442Y00566
X034582Y00541
X034622Y00524
X034632Y00506
Y00468
X034132Y00414
X033222Y00436
X033172Y0047525
X033212Y00514
X032642Y00496
X032652Y00483
X032812Y00445
X0324Y0056
X032
Y0064
X032232Y00644
X0326Y0068
X032492Y00716
X0318Y0068
Y0076
X032025Y007772
X0334Y0076
X033492Y007392
X033852Y00728
X034Y0072
X0344
X0348
X035Y0068
X0346
X0342
X034Y0064
X0336
X0334Y0068
X0342Y0076
X034425Y007772
X0348Y0056
X0352Y004
X0356
X0308
X0304
X029332Y00414
X029832Y00468
Y00506
X029822Y00524
X029782Y00541
X029642Y00566
X029532Y0059
X029482Y006
X029432Y0061
X029382Y0062
X029332Y0063
X0292Y0064
X0296
X03
X0304
X0308
X0312
X0316
X0314Y0068
X031
X031092Y007392
X031Y0076
X03Y0072
X0296
X0292
X029052Y00728
X028692Y007392
X0286Y0076
X0294
X029625Y007772
X0298Y0068
X0302
X0294
X0286
X0288Y0064
X0278Y0068
X028Y0056
X027842Y00496
X027852Y00483
X028012Y00445
X028422Y00436
X028372Y0047525
X028412Y00514
X03Y0056
X0304
X030532Y00581
X0308Y0056
X0312
X0316
X0276
X0272
X0268
X0264
X026
X0256
X025732Y00581
X0256Y0064
X026
X0264
X0268
X0272
X027432Y00644
X0274Y0068
X027
X0266
X0262
X026292Y007392
X0262Y0076
X027
X027225Y007772
X027692Y00716
X0252Y0072
X0248
X0244
X024252Y00728
X023892Y007392
X0246Y0076
X024825Y007772
X025Y0068
X0254
X0252Y0064
X0248
X024532Y0063
X024582Y0062
X024632Y0061
X024682Y006
X024732Y0059
X024842Y00566
X024982Y00541
X025022Y00524
X025032Y00506
Y00468
X024532Y00414
X0256Y004
X026
X0252Y0056
X023962Y00554
X0244Y0064
X0246Y0068
X0238
X023542Y00652
X023Y0068
X022892Y00716
X022632Y00644
X0224Y0064
X022
X0216
X0212
X0208
X0204
X0206Y0068
X0202
X02Y0072
X0204
X020025Y007772
X0214Y0076
X021492Y007392
X0214Y0068
X0218
X0222
Y0076
X022425Y007772
X0238Y0076
X0236Y0056
X023612Y00514
X023572Y0047525
X023622Y00436
X023212Y00445
X023052Y00483
X023042Y00496
X023032Y0057
X0224Y0056
X022
X0216
X0212
X0208
X020932Y00581
X020042Y00566
X019932Y0059
X019882Y006
X020182Y00541
X020222Y00524
X020232Y00506
Y00468
X0208Y004
X0212
X019732Y00414
X018822Y00436
X018772Y0047525
X018812Y00514
X018242Y00496
X018252Y00483
X018412Y00445
X0184Y0056
X018
X0176
X0172
X0168
X0164
X016
X016132Y00581
X016Y0064
X0164
X0168
X0172
X0176
X017832Y00644
X0178Y0068
X0182
X018092Y00716
X0174Y0068
X017
X0166
X016692Y007392
X0166Y0076
X0174
X017625Y007772
X019092Y007392
X019452Y00728
X0196Y0064
X019732Y0063
X019782Y0062
X019832Y0061
X0164Y004
X016
X014932Y00414
X015432Y00468
Y00506
X015422Y00524
X015382Y00541
X015242Y00566
X015132Y0059
X015082Y006
X015032Y0061
X014982Y0062
X014932Y0063
X0148Y0064
X0152
X0156
X0158Y0068
X0156Y0072
X0152
X0148
X014652Y00728
X014292Y007392
X0144Y0064
X015Y0068
X015225Y007772
X012825
X0126Y0076
Y0068
X013
X013032Y00644
X0128Y0064
X0124
X012
X0122Y0068
X0134
X013292Y00716
X0132Y0056
X0136
X013442Y00496
X013452Y00483
X013612Y00445
X014022Y00436
X013972Y0047525
X014012Y00514
X0128Y0056
X0124
X012
X0156
X0116
X0112
X011332Y00581
X0112Y0064
X0116
X0118Y0068
X011892Y007392
X0118Y0076
X0108Y0072
X011Y0068
X0108Y0064
X010132Y0063
X010182Y0062
X010232Y0061
X010282Y006
X010332Y0059
X010442Y00566
X010582Y00541
X010622Y00524
X010632Y00506
Y00468
X010132Y00414
X009222Y00436
X009172Y0047525
X009212Y00514
X008642Y00496
X008652Y00483
X008812Y00445
X0088Y0056
X0084
X008
Y0064
X008232Y00644
X0082Y0068
X0086
X008492Y00716
X008025Y007772
X009492Y007392
X009852Y00728
X01Y0072
Y0064
X0096
X0108Y0056
X0112Y004
X0116
X010425Y007772
X0078Y0076
Y0068
X0074
X007
X0068Y0064
X0072
X0076
Y0056
X0072
X0068
X0064
X006532Y00581
X0064Y0064
X006
X0056
X005332Y0063
X005382Y0062
X005432Y0061
X005482Y006
X005532Y0059
X005642Y00566
X005782Y00541
X005822Y00524
X005832Y00506
Y00468
X005332Y00414
X004422Y00436
X004372Y0047525
X004412Y00514
X004Y0056
X004012Y00445
X0048Y0064
X0052
X0054Y0068
X0058
X0062
X006Y0072
X0056
X0052
X005052Y00728
X004692Y007392
X0054Y0076
X005625Y007772
X007Y0076
X007092Y007392
X006Y0056
X0064Y004
X0068
X003852Y00483
X003842Y00496
X0032Y0048
X003Y0052
X0026
X0022
X002Y0056
X0024
X0028
X0032
X0036
X0038Y006
Y0068
X0034
X003432Y00644
X0032Y0064
X0028
X0024
X002
X0022Y0068
X0026
X003
Y0076
X003225Y007772
X003692Y00716
X002292Y007392
X0022Y0076
X002Y0072
X0022Y006
X0026
X003
X0024Y0048
X002
X0022Y0044
X0026
X002Y004
Y008
X0024
X0022Y0084
X002Y0088
X0022Y0092
X0026
X0024Y0096
X002
X0036
X0034Y0092
X0036Y0088
X0034Y0084
X003
X0028Y0088
X0036Y008
X003Y0105
X0048Y0096
X006
X0068
X0072
X0076Y0088
X0078Y0084
X007
X0068Y0088
Y008
X0072
X006
X0058Y0084
X0054
X0052Y0088
X006
X006Y0105
X0075
X0046Y0084
X0048Y008
X0084
X0082Y0084
X0084Y0088
Y0096
X0096
X0108
X0116
Y0088
X0118Y0084
X0116Y008
X0108
X0106Y0084
X0108Y0088
X0094Y0084
X0096Y008
X009Y0105
X012Y0096
X0132
Y0088
X013Y0084
X0126
X0124Y0088
X012Y008
X0132
X0144
X0142Y0084
X0148Y0088
X0156
X0154Y0084
X0156Y008
Y0096
X0144
X0164
X0168
X018
X0182Y01
X018Y0104
X0184
X0182Y0108
X0184Y0112
X0186Y0116
X019202Y01146
X0194Y0116
X019392Y01173
X019042Y01118
X018952Y01091
X019Y0108
X018882Y01005
X0194Y01
X0192Y0096
X019Y0084
X0192Y008
X018
X0178Y0084
X0174
X0172Y0088
X018
X0164
X0166Y0084
X0164Y008
X0168
X0204
X0202Y0084
X0204Y0088
Y0096
X0206Y01
X021
X0208Y0104
X0204
X02
X0202Y0108
X0206
X021
X020702Y01137
X020602Y01179
X020492Y01183
X02033196Y01183998
X0202Y0116
X020062Y01159
X0202Y01
X0218
X0222
X0226
X023
X0234
X0238
X0232Y0104
X0228
X0224
Y0112
X0228
X0232
X0234Y0108
X023
Y0116
X0226
X022242Y01163
X02165196Y01140998
X0215445Y0118474
X0216Y0104
Y0096
X0228
X0226Y0084
X0222
X022Y0088
X0214Y0084
X0216Y008
X0228
X0238Y0084
X023382Y01165136
X024Y0105
X024Y0096
X0252
X026
X0264
X0276
Y0088
X0274Y0084
X027
X0268Y0088
X026
X0262Y0084
X026Y008
X0264
X0276
X0252
X025Y0084
X0246
X0244Y0088
X0252
X024Y008
X0255Y0105
X027
X0288Y0096
X03
Y0088
X0298Y0084
X0294
X0292Y0088
X0286Y0084
X0288Y008
X03
X0308
X031Y0084
X0312Y0096
X0315Y0105
X030552Y01047
X033Y0105
X0336Y0096
X0348
X0356
Y0088
Y008
X0348
X0346Y0084
X0342
X034Y0088
X0348
X0334Y0084
X0336Y008
X0324
X0322Y0084
X0318
X0324Y0088
Y0096
X0345Y0105
X036
X036Y0096
X0372
Y0088
X037Y0084
X0366
X0364Y0088
X0358Y0084
X036Y008
X0372
X0384
X0382Y0084
X039
X0394
X0396Y0088
Y0096
X0384
X0388Y0088
X0396Y008
X039Y0105
X0375
X03975Y012
X03825
X037992Y01198
X037882Y01209
X033192Y01225
X033082Y01234
X028472Y01261
X028372Y01273
X0285Y0135
X02925Y015
X02775
X02625
X02475
X0255Y0135
X025762Y01307
X027Y0135
X024
X0228Y0136
X0226Y0132
X0218
X021722Y01304
X0214Y0132
X021332Y0136
X021512Y01359
X021752Y0136
X022Y0136
X021762Y0142
X021102Y0136
X02089109Y01360091
X020672Y01359
X020462Y0136
X020242Y01359
X020022
X021042Y01344
X021162Y01268
X0209748Y01257794
X0210548Y0124572
X021102Y0122474
X021162Y01213
X020952Y01216
X020802Y01215
X020882Y01207
X021002Y01194
X02061196Y01190998
X020552Y01204
X020572Y0123474
X020592Y01253
X020602Y01288
X021407Y0127375
X0214795Y0126125
X021622Y01229
X0218Y0124
X022422Y01232
X022502Y01223
X0225995Y0120975
X022592Y0119825
X0223957Y0119763
X021112Y01514
X020892Y01524
X020662Y01539
X020452Y01547
X020252Y01555
X019802Y01359
X019582Y01358
X0177Y0135
X0174
X01755Y0138
X0177Y0141
X0174
X0171845Y014005
X0171045Y01389
X0170395Y013775
X0169445Y0137975
X016792Y01404
X0164795Y01421
X0165245Y0143525
X0165254Y0147844
X01670739Y01482582
X016772Y01494
X01676489Y01516833
X01648738Y01524834
X01636987Y01540084
X01613986Y01539084
X01601736Y01546335
X01587985Y01540835
X01590235Y01555085
X01612236Y01511583
X016082Y01472392
X0162254Y0147846
X0159254Y0147798
X01605Y0144
X0160754Y013936
X016157Y01399
X016242Y01408
X0163754Y0136566
X0160145Y013615
X016817Y013525
X0167995Y0147275
X01664238Y01542835
X01724742Y01553335
X017252Y01565
X017512Y0152825
X0176145Y01517
X017462Y015055
X01755Y0144
X01566484Y01414578
X015547Y01407
X0155645Y0139525
X015372Y0139925
X01506981Y01391327
X014932Y01405
X0147998Y01393827
X01466229
X0145745Y0140275
X0144Y0141
X0141
X01425Y0144
X01395
X0141Y0147
X014297Y0147125
X01449978Y01471581
X01445478Y01485332
X0143834Y0149309
X0146254Y0147844
X0149254Y0147846
X0151944Y0147742
X015312Y01467
X01530482Y01525834
X01532982Y01539584
X01540233Y01545335
X01558483Y01547835
X01574234Y01537334
X01579734Y01514583
X01548622Y01525968
X01512731Y01515583
X0149898Y01515833
X0149198Y01529584
X01478229Y01528334
X01476229Y01517833
X014677Y01509
X014682Y0155025
X0147195Y015695
X014567Y0157075
X01499219Y01566844
X015792Y01572
X015782Y01587
X01395Y0156
X0141Y0153
X014227Y0152
X01395Y015
X01335
X01305
X01275
X01245
X01215
X0123Y0153
X0126
X0129
X0132
X0135
X01335Y0156
X01305
X01275
X01245
X01215
X0123Y0147
X0126
X0129
X0132
X0135
X01335Y0144
X01305
X01275
X01245
X01215
X0123Y0141
X0126
X0129
X0135
Y0135
X0141
X0144
X0147
X015127Y0135475
X015057Y013635
X015312Y01363
X015482Y013655
X01425Y0138
X01395
X01472999Y0143525
X0129Y0135
X0126
X0123
X01215Y0138
X01125Y015
X00975
X00825
X009Y0135
X00975Y012
X01125
X00825
X00675
X0075Y0135
X006
X0045
X00525Y015
X00675
X00375
X003Y0135
X00375Y012
X003Y0165
X00375Y018
X003Y0195
X0045
X006
X0075
X00675Y018
X00525
X006Y0165
X0075
X0045
X009
X00975Y018
X01125
X00825
X009Y0195
X01215Y01979999
Y01919999
Y01859999
X012472Y01864
X0126Y01889999
X0129
Y01949999
X0126
X0135
X013662Y019415
X0138Y01949999
X0138995Y0194625
X0141495Y01951
X014072Y019305
X01395Y01919999
X01365
X014267Y0192306
X014352Y0191625
Y0196725
X014732Y0193125
X0151893Y0195552
X01532482Y01959355
X0156Y01949999
X01575Y01979999
X015847Y019195
X0158045Y0191
X015767Y0189675
X0153595Y0190325
X015862Y018465
X015712Y017815
X01545Y01799999
X0152695Y0179475
X015027Y017805
X014852Y01816
X014862Y01825
X01437198Y01847996
X0142076Y0187306
X014202Y01812
X01395Y01799999
X014367Y0178325
X01395Y0174
X0141Y0171
X01395Y0168
X0141Y0165
X01395Y0162
X0141Y0159
X0135
X0132
X0129
X0126
X0123
X01245Y0162
X01275
X01305
X01335
X0135Y0165
X0132
X0129
X0126
X0123
X01245Y0168
X01275
X01305
X01335
X0135Y0171
X0132
X0129
X0126
X0123
X01245Y0174
X01275
X01305
X01335
X0135Y0177
X0132
X0129
X0126
X0123
X01245Y01799999
X01275
X01305
X01335
X0135Y01829999
X0132
X0126
X0123
X01215Y01799999
Y0174
Y0168
Y0162
X014952Y01645
X014962Y01656
X014972Y01668
X0157595Y01677
X015682Y0169775
X015712Y017145
X0157095Y0172425
X0156995Y0173625
X0158545Y0174325
X015782Y01636
Y016245
Y01612
Y016
X01373198Y01854996
X016002Y01869
X016192Y01876
X016572Y01869
X016682Y01872
X0168Y01889999
X016972Y01911
X017252Y01931
X0171Y01949999
X0168
X01695Y01979999
X0164597Y01978
X01605Y01979999
Y01919999
X01607474Y01793605
X016222Y01796
X0162231Y0178104
X016502Y01792
X016712Y01795
X0168195Y0178075
X017047Y0178925
X0172231Y0178075
X017272Y01804
X0173026Y0183302
X01725Y01859999
X017652Y0188
X01785Y01919999
X0177614Y0193306
X017647Y01943
X01799999Y01949999
X01829999
X01859999
X01874999Y01979999
X01844999
Y01919999
X01874999
X018722Y01877
X018872Y01856
X01931196Y01855997
X01979999Y01889999
X019332Y01963
X01934999Y01979999
X01814999Y01919999
X017882Y01801
X017752Y01714
X01710128Y01718
X0171695Y01732
X016992Y01739
X0169045Y01744
X01653988Y01742094
X0165395Y0172125
X0164545Y0169675
X01630737Y01704843
X0161745Y01714
X0161745Y0172725
X016242Y01737
X016212Y01691
X0163495Y016825
X017222Y01696
X0168195Y0183925
X018532Y01762
X019502Y01695
X019802Y01635
X02001196Y01675997
X020212Y01659
X020572Y01644
X020502Y01815
X020722Y01825
X02099999Y01889999
X02129999
X02159999
X02189999
X0220586Y0191302
X0217284
X02144999Y01919999
X02114999
X02084999
X02099999Y01949999
X02114999Y01979999
X02144999
X02084999
X02039999Y01949999
Y01889999
X02189999Y01949999
X0225406Y0193488
X02264999Y01919999
X02309999Y01889999
X02369999
X02354999Y01919999
X022342Y01873
X02399999Y01889999
X02429999
X02459999
X02489999
X02519999
X02549999
X02564999Y01919999
X02594999
X026182Y01926
Y01944
X026352Y01935
Y01917
X026512Y01926
Y01944
X02669999Y01949999
X02699999
X02729999
X02759999
X02774999Y01919999
X02744999
X02714999
X02684999
X02669999Y01889999
X02639999
X02609999
X02534999Y01919999
X02504999
X02474999
X02444999
X02414999
X02384999
X02474999Y01979999
X02504999
X02564999
X02714999
X02744999
X02759999Y01889999
X02729999
X027Y0165
X0255
X024
X0285
X02849999Y01889999
X02819999
X02834999Y01919999
X02864999
X02894999
X02924999
X02954999
X02984999
X03014999
X03044999
X030462Y01961
Y01979
X030642Y0197
X030822Y01979
Y01961
X03029999Y01949999
X03014999Y01979999
X02984999
X02954999
X02924999
X02894999
X028692Y01982
Y01964
X028532Y01973
X028362Y01964
Y01982
X02804999Y01979999
Y01919999
X02909999Y01949999
X02939999
X02969999
Y01889999
X02939999
X02909999
X03029999
X03059999
X030642Y02006
Y02024
X030462Y02015
X030822
Y01997
X03074999Y02159999
X03044999
X03014999
X02984999
X02999999Y02129999
X02969999
X02939999
X02924999Y02159999
X02939999Y02189999
X02909999
X02879999
X028552Y02196
X02819999Y02189999
X02789999
X02804999Y02219999
X02834999
X02819999Y02249999
X02789999
X02804999Y02279999
X02834999
X02849999Y02309999
X02879999
X02894999Y02279999
X02924999
X02939999Y02249999
X02969999
X02999999
X03029999
X03059999
X03074999Y02279999
X03044999
X03059999Y02309999
X03029999
X02999999
X02969999
X02954999Y02219999
X02924999
X02894999
X02909999Y02249999
X02879999
X02864999Y02159999
X02834999
X02804999
X028002Y0211822
X02849999Y02129999
X02924999Y02099999
X02984999
X02954999Y02039999
X02894999
X028692Y02018
Y02
X028532Y02009
Y01991
X028362Y02
Y02018
X028532Y02027
X02804999Y02039999
X02819999Y02309999
X02789999
X03014999Y02219999
X03044999
X03074999
X03059999Y02189999
X03029999
X031212Y02208
X02774999Y02219999
X027502Y02229
X02714999Y02219999
X02684999
X02699999Y02189999
X02729999
X02759999
X02774999Y02159999
X02759999Y02129999
X02729999
X02744999Y02099999
X02774999
X02729999Y02069999
X02744999Y02039999
X02729999Y02009999
X02684999Y02099999
X02654999
X02624999
X02594999
X02564999
X02534999
X02504999
X02474999
X02444999
X02414999
X02384999
X02399999Y02129999
X02429999
X02459999
X02489999
X02519999
X02549999
X02579999
X02609999
X02639999
X02669999
Y02189999
X02639999
X02609999
X026232Y02229
X02609999Y02249999
X02579999
X02594999Y02279999
X02624999
X02639999Y02309999
X02609999
X02579999
X025532Y02300938
Y02282938
X02564999Y02279999
X025372Y02273938
Y02291938
X025202Y02282938
Y02300938
X02504999Y02279999
X02474999
X02444999
X02414999
X02429999Y02309999
X02399999
Y02249999
X02429999
Y02189999
X02399999
X02489999
X0251109Y02215
X02549999Y02189999
X02558712Y02177
X02549999Y02069999
X02519999
X02489999
X02459999
X02474999Y02039999
X02504999
X02534999
X02594999
X025982Y02027
X024322Y02022
X024202
X02399999Y02009999
X0240595Y01999192
X0243661Y0198623
X02489999Y02309999
X024812Y02378
X027092Y02358
Y0234
X027262Y02349
Y02331
X027422Y0234
Y02358
X02759999Y02309999
X02774999Y02279999
X02669999Y02249999
X02354999Y02279999
X02324999
X02294999
X02264999
X02234999
X02204999
X02174999
X02144999
X02114999
X02084999
X02099999Y02309999
X02129999
X02144999Y02339999
X02174999
X02204999
X02189999Y02369999
Y02309999
X02249999
X02279999
X02309999
X02339999
Y02189999
X02369999
X02309999
X02279999
Y02129999
X0220981Y0214663
X02204999Y02159999
X02189999Y02189999
X02204999Y02219999
X022242Y02228
X02174999Y02219999
X0217284Y021467
X02144999Y02159999
X02084999
X02099999Y02129999
X02114999Y02099999
X02084999
X02099999Y02069999
Y02009999
X02039999
Y02069999
Y02129999
Y02189999
X02084999Y02219999
X020792Y02366
X02129999Y02369999
X019912Y02366
X02174999Y02099999
X0217284Y020705
X0220856Y0207063
X022242Y02032
X0221094Y0199176
X0217284
X02309999Y02009999
X02324999Y02039999
X02354999
Y02099999
X023382Y02085
X02309999Y02069999
X01949999
X01964999Y02039999
X01934999
X01874999
X018732Y02123
X019012Y02129
Y02113
X019252Y02102
X01919999Y02189999
X01949999
X01964999Y02219999
X01934999
X01904999
X01874999
X01889999Y02189999
X01799999
X0177
X0174
X01755Y02219999
X01785
X018222Y0228
X018332Y02296
X018432Y02314327
X01844999Y02339999
X018562Y0233
X01874999Y02339999
X01904999
X01934999
X01964999
X01979999Y02369999
X01949999
X01919999
X01889999
X01859999
X01829999
X01799999
X0177
X0174
X0171
X0168
X01695Y02339999
X01725
X01755
X01785
X01814999
X01889999Y02309999
X01919999
X01949999
X01979999
X01964999Y02279999
X01934999
X01904999
X01874999
X0171448Y0227028
X016942Y02259
X016952Y02248
Y02238
X0168Y02189999
X01605Y02219999
Y02339999
X0162Y02369999
X0159
X015932Y02086
X016062Y02081
X016132Y02088
X016212Y02095
X016272Y02104
X01643197Y02103996
X016572Y0207925
X017242Y02078
X0174Y02069999
X0177
X01799999
X017742Y02042
X01766994Y02031108
X017647Y0200825
X0172145Y020075
X01724197Y01997996
X017142Y0201475
X0172745Y02031
X0173145Y020405
X0162731Y02037
X016392Y0198475
X0158145Y0204125
X0155731Y02037
X015152Y02036
X0151445Y02013651
X015292Y02006
X014772Y02008
X014862Y0199
X01482958Y02033781
X0146752Y0204062
X014917Y020795
X014882Y02089
X01524197Y02088996
X01540199Y02113999
X015422Y02123
X01548197Y02130996
X0153Y02129999
X015
X015212Y02152
X01515Y02159999
X01545
X015632Y0216
X015692Y02153
X015772Y02147
X01583197Y02139996
X015862Y02079
X01575Y02219999
X01545
X01515
X01455
X01425
X01395
X01365
X01335
X01305
X01275
X0129Y02189999
X0132
X01335Y02159999
X01305
X01275
X0129Y02129999
X0132
Y02069999
X0129
X0126
X0123
X012312Y020265
X0124795Y0199075
X01275Y02039999
X01305
X01335
X0132595Y020135
X014242Y02007
X0143295Y019855
X01425Y02159999
X01455
Y02339999
X01425
X01395
X01365
X01335
X01305
X01275
X0129Y02369999
X0132
X0135
X0138
X0141
X0144
X0147
X015
X0153
X0156
X01575Y02339999
X01545
X01515
X0126Y02369999
X0123
Y02129999
X0126
X010872Y02282
X010562Y0227028
X010272Y02248
X010172Y02257
X010357Y022375
X009782Y02296
X009612Y02314327
X009492Y0233
X009Y0225
X010512Y02002
X006932Y02096
X006422Y02106
X00525Y021
X006Y0225
X0075
X0045
X003
X00375Y021
Y024
X00525
X00675
X00675Y02639999
X00735
X00765
X007512Y0266666
X0078Y02669999
X00765Y02699999
X00735
X0078Y02729999
X00765Y02759999
X00705
X00675
X00585
X006Y02729999
X0057
X0054
X0051
X00525Y02759999
X00495
X00465
X00435
X0042Y02729999
X00435Y02699999
X0045Y02669999
X0048
X00495Y02639999
X00525
X00555
X00585
X00615
X006Y02669999
X00465Y02639999
X00435
X0042Y02669999
X0081
X0084
X0087
X009
X0093
X00915Y02699999
X00885
X00855
X00825
X0084Y02729999
X0087
X009
X00915Y02759999
X00885
X00855
X00825
X0081Y02729999
X00825Y02639999
X00855
X00885
X00915
X01005
X01035
X01065
X01095
X0111Y02669999
X0108
X0105
X0102
X0099
Y02729999
X0102
X0105
X0108
X01095Y02759999
X01125
X01155
X01185
Y02699999
X011502Y02699
X0114Y02729999
X01185Y02639999
X01035Y02759999
X00795Y02639999
X00825Y024
X01125
X0123Y02429999
X012482Y02434
X01245Y02459999
X01275
X01305
X01335
X01365
X01395
X01425
X01455
X01515
X01545
X01575
Y02399999
X01545
X01515
X01455
X01425
X01395
X01365
X01335
X01305
X01275
X0129Y02489999
X0132
X0135
X013682Y02498
X013812Y02512
X01335Y02519999
X01305
X01275
X01245
X0126Y02549999
X0129
X0132
X0135
X01335Y02579999
X0129121Y0258
X01275Y02579999
X01245
X0126Y02609999
X0123
X01245Y02639999
X01275
X01305
X01335
X01365
X01395
X01425
X01455
X014832Y02644
X014932Y02624
X015Y02609999
X0153
X0154083Y02602282
X01545Y02579999
X01575
X0158655Y02602282
X015632Y02623
X0155645Y02634922
X015502Y02644
X0156Y02669999
X0153
X0154195Y02682012
X01545Y02699999
X01575
X015827Y02682012
X01515Y02699999
X01485
X01455
X0147Y02669999
X015
X0144
X0141
X0138
X0135
X0132
X0129
X0126
X0123
X012
X01215Y02699999
Y02759999
X01245
X01305
X01365
X01425
X01455
X01485
X01515
X01545
X01515Y02579999
X0153Y02549999
X0156
X015
X0147
X0144
X0141
X01425Y02579999
X01455
X0147Y02609999
X0144
X0141
X01395Y02579999
X0123Y02549999
Y02489999
X0126
X01605Y02459999
X016332Y0246
X016412Y02448
X016512Y02441
X016332Y02425
X01605Y02399999
X01695
X01725
X01755
X01785
X01814999
X01844999
X01874999
X01859999Y02489999
X01829999
X01799999
X0177
X0174
X0171
X0168
X01668628Y02496
X016572Y02511
X01665Y02519999
X01695
X01725
X01755
X01785
X01814999
X01844999
X01874999
X01904999
X0190815Y02495222
X0194041Y02513002
X0195353Y02500942
X019712Y02468
X019812Y02475
X0196581Y02556182
X01964999Y02639999
X01934999
X01904999
X01919999Y02609999
X01889999
X01859999
X01829999
X01799999
X0177
X0174
X0171
X0168
X0165211Y02602762
X0164497Y02627682
X0164505Y02658442
X0165211Y02683082
X0162513
X0162Y02669999
X0159
X016012Y02735
X0165Y02729999
X01665Y02759999
X01635
X01725
X01755
X01785
X01814999
X01844999
X01874999
X0191247Y02758452
X018972Y02695
X0186233Y02683262
X018442Y02645512
X01844999Y02579999
X01874999
X01904999
X01859999Y02549999
X01829999
X01799999
X0177
X0174
X0171
X0168
X0165
X0162
X0159
X01605Y02579999
X01635
X01665
X01695
X01725
X01755
X01785
X01814999
X01799999Y02669999
X0180745Y02688262
X01799999Y02729999
X0177
X01755Y02699999
X01725
X01695
X0171Y02729999
Y02669999
X0174
X0177
X01725Y02639999
X01695
X0168Y02669999
X0161655Y02602762
X020202Y02549
X0204201Y02556182
X020772Y0254
X020752Y02526
X0205351Y02500022
X020312Y02492
X020152Y0249125
X020632Y02473
X020772Y02467
X020892Y02464
X021012Y0246
X0212845Y024775
X0213845Y024845
X021602Y02458
X02204999Y02459999
X02219999Y02489999
X02189999
X02204999Y02519999
X02174999
X02189999Y02549999
X02219999
X02204999Y02579999
X02174999
X02189999Y02609999
X02219999
X02159999
Y02549999
X02114999Y02579999
X021692Y02664
X021602Y0269525
X02174999Y02759999
X02204999
X022307Y027335
X0223045Y0267025
X0213091Y02764462
X0211567Y02774622
X0202696Y02774432
X0202808Y02758452
X0205345Y0270525
X0201538Y02682942
X0202931Y02401242
X0202169Y02383462
X0208011
X020702Y02412
Y02425
X020562Y02413262
X0212583Y02401242
X02144999Y02399999
X02174999
X02204999
X02189999Y02429999
X024Y024
X026
X027
X0275Y025
X0265
X0255
X026Y026
X027
X0275Y027
X0265
X0255
X0245
X025Y026
X024
X028
X029
X03
X0305Y027
X0295
Y025
X0285
X028Y024
X03
X02219999Y02789999
X02189999
X02159999
X021457Y027925
X01889999Y02789999
X01859999
X01829999
X01799999
X0177
X0174
X0171
X0165
X0156
X0153
X015
X0147
X0144
X0141
X0138
X0129
X0126
X0123
X012
X0117
X0114
X0111
X0105
X0096
X0093
X009
X0084
X0081
X0078
X0075
X0072
X0066
X006427Y0280266
X0054Y02789999
X0051
X0042
T02
X0202589Y0245524
X0203789
T03
X0228686Y0147434
X022002Y01961
X025932
X027072Y02168
X023752Y02247
X022532
X0228346Y02168
X022862Y02116
X0210631Y0224689
X017302
X023162Y02645512
X023242Y02696
T04
X0038762Y0024656
X0041502
X0044242
X0046982
X0049722
X0048352Y0022116
X0045612
X0042872
X0040132
X0088132
X0090872
X0093612
X0096352
X0094982Y0024656
X0097722
X0092242
X0089502
X0086762
X0134762
X0137502
X0140242
X0142982
X0145722
X0144352Y0022116
X0141612
X0138872
X0136132
X0184132
X0186872
X0189612
X0192352
X0190982Y0024656
X0193722
X0188242
X0185502
X0182762
X0230762
X0233502
X0236242
X0237612Y0022116
X0234872
X0232132
X0240352
X0238982Y0024656
X0241722
X0278762
X0281502
X0284242
X0286982
X0289722
X0288352Y0022116
X0285612
X0282872
X0280132
X0328132
X0330872
X0333612
X0336352
X0334982Y0024656
X0337722
X0332242
X0329502
X0326762
X0374762
X0377502
X0380242
X0382982
X0385722
X0384352Y0022116
X0381612
X0378872
X0376132
X0197892Y019778
Y020032
Y020286
Y02054
Y020794
Y021048
Y021302
Y021556
Y02181
X016192Y02191
X015938
X015684
X01543
X015176
X014922
X014668
X014414
X01416
X013906
X013652
X013398
X007441Y0273766
X007187
X006933
X005568Y0276796
X004806
X0200429Y02843202
X0202461
X0204493Y02843202
X0203477Y02861002
X0201445
X0199413
X0205503Y02795002
X0207793
X0196363
X0194073
X0198397Y02843202
X0197381Y02861002
X0138825Y02863262
X0136085
X0133345
X0130605
X0131975Y02834814
X0129235
X0134715
X0137455
X0140195
X007922Y0284151
Y0281611
Y0286691
X0068185Y0289941
X0065645
X0063105
X005568Y0279336
X004806
T05
X00219682Y00248356
Y00273756
X00245082
Y00248356
X003172Y003925
X006182
X00699682Y00273756
Y00248356
X00725082
Y00273756
X007972Y003925
X010982
X01179682Y00273756
Y00248356
X01205082
Y00273756
X012772Y003925
X015782
X017572
X01685082Y00273756
X01659682
Y00248356
X01685082
X02139682
Y00273756
X02165082
Y00248356
X022372Y003925
X020582
X025382
X027172
X02645082Y00273756
X02619682
Y00248356
X02645082
X03099682
Y00273756
X03125082
Y00248356
X030182Y003925
X031972
X034982
X036772
X03605082Y00273756
X03579682
Y00248356
X03605082
X039782Y003925
X036102Y004925
X031302
X026502
X021702
X016902
X012102
X007302
X002502
X002182Y009002
X003775Y009072
Y009372
Y009672
X004029
Y009372
Y009072
X004582Y009002
X006175Y009072
X006429
Y009372
X006175
Y009672
X006429
X006982Y009002
X008575Y009072
X008829
Y009372
X008575
Y009672
X008829
X009382Y009002
X010975Y009072
X011229
Y009372
X010975
Y009672
X011229
X011782Y009002
X013375Y009072
X013629
Y009372
X013375
Y009672
X013629
X014182Y009002
X015775Y009072
Y009372
Y009672
X016029
Y009372
Y009072
X016582Y009002
X018175Y009072
X018429
Y009372
X018175
Y009672
X018429
X018982Y009002
X020575Y009072
X020829
Y009372
X020575
Y009672
X020829
X021382Y009002
X022975Y009072
X023229
Y009372
X022975
Y009672
X023229
X023782Y009002
X025375Y009072
X025629
Y009372
X025375
Y009672
X025629
X026182Y009002
X027775Y009072
Y009372
Y009672
X028029
Y009372
Y009072
X028582Y009002
X030175Y009072
X030429
Y009372
X030175
Y009672
X030429
X030982Y009002
X032575Y009072
X032829
Y009372
X032575
Y009672
X032829
X033382Y009002
X034975Y009072
X035229
Y009372
X034975
Y009672
X035229
X035782Y009002
X037375Y009072
X037629
Y009372
X037375
Y009672
X037629
X038182Y009002
X039775Y009072
X040029
Y009372
X039775
Y009672
X040029
X0130306Y018385
X0127766
Y01879547
X0130306
Y01920593
X0127766
Y0196164
X0130306
X0237819Y0187607
X0270628Y01903318
X028902Y01898
X030972Y01899
X0302212Y02276
X029552Y02276
X0264907Y02362578
X0245995Y023065
X0237549Y0212687
X0174845Y02626262
X0237513Y025105
X030182Y02388
X030292Y02708
Y02799
X030038
T06
X0102977Y0260911
X0105517
X0108057
X0110597
T07
X003172Y002925
X002502Y003925
X006182Y002925
X007302Y003925
X007972Y002925
X010982
X012772
X012102Y003925
X015782Y002925
X017572
X016902Y003925
X020582Y002925
X022372
X021702Y003925
X025382Y002925
X027172
X026502Y003925
X030182Y002925
X031302Y003925
X031972Y002925
X034982
X036772
X036102Y003925
X039782Y002925
X003182Y009002
X005582
X007982
X010382
X012782
X015182
X017582
X019982
X022382
X024782
X027182
X029582
X031982
X034382
X036782
X039182
X0237819Y0197607
X027902Y01898
X029972Y01899
X0312212Y02276
X028552Y02276
X0264907Y02262578
X0245995Y022065
X0270628Y02003318
X0237549Y0202687
X0174845Y02726262
X0237513Y024105
X030182Y02488
X029292Y02708
T08
X031422Y02694
Y02729
Y02764
Y02799
T09
X027952Y02519
X028714
Y02741
X027952Y02709
Y02773
T10
X004747Y0286266
X005097
X005447
T11
X0209063Y02852102
X0192803
T12
X001732Y00197
X0031747Y0023386
X0056737
X0079747
X0104737
X0127747
X0152737
X016232Y00197
X0175747Y0023386
X0200737
X0223747
X0248737
X026232Y00197
X0271747Y0023386
X0296737
X0319747
X0344737
X0367747
X0392737
X041032Y00197
Y01377
X027732
X013232
X001732
X031032Y02857
X017732
X014721Y02849038
X012222
X001732Y02857
T13
X016252Y02873
X015812
X0106189Y0287878
X0101789
T14
X0207283Y02886402
X0194583
M30
